<svg width="76.59mm" height="35.57mm" version="1.1" viewBox="0 0 76.59 35.57" xml:space="preserve" xmlns="http://www.w3.org/2000/svg"><g transform="translate(-46.91 -108.23)"><path d="m47.123 143.51c0.85697-0.16634 1.9384-0.27817 2.5694-0.95144 1.1446-1.2211 0.4845-4.6928 0.6356-6.2805 0.6715-7.0563 1.0284-14.43 1.0284-21.519l-0.88194 0.17639c2.6822-3.266 11.227-6.9255 12.361-0.52917 0.13423 0.75733 0.21502 1.5241 0.13229 2.2931-0.43127 4.0162-3.9928 6.707-6.4446 9.525-2.3169 2.6629-3.4545 5.2731-3.2103 8.8194 0.59364 8.6203 11.967 9.128 16.741 3.3514-4.0679 1.3231-11.392 3.5606-13.224-2.1167-1.8484-5.7288 3.0022-8.8323 6.3141-12.524 2.9168-3.251 4.662-8.6629 2.2615-12.7-3.3777-5.6804-14.168-1.7658-16.949 2.6458-1.6397 2.6016-0.63235 5.4836-0.62784 8.2903 0.0081 5.0421-0.31547 10.131-0.53612 15.169-0.08421 1.9233-0.70009 4.503-0.16944 6.35m60.149-2.6458c-3e-3 -1.0335-0.19438-1.8706-0.60467-2.8222-1.9226-4.4589-5.3259-3.8361-8.3912-0.88388-1.0809 1.041-3.2678 3.1494-4.648 1.3938-2.0147-2.5624 0.29774-6.7211 1.9438-8.8 0.68774-0.86871 1.8392-2.0846 3.057-2.0465 3.4332 0.10742 0.92146 5.1089 2.7224 6.272 0.8382 0.54134 1.874-0.48859 2.0888-1.2278 0.46285-1.5917 0.32597-3.9603-0.34519-5.4674-1.3167-2.9573-4.9976-2.5557-7.4646-1.3899-4.0855 1.9308-6.7878 7.556-6.0106 11.973 0.3242 1.8434 1.2121 4.2136 3.1884 4.8239 2.6144 0.80733 5.2839-1.0202 7.0556-2.7141 0.76994-0.73625 1.7073-2.0944 2.8222-2.301 2.0239-0.375 2.7547 2.9071 4.5861 3.1898m4.0569-2.6458c0.0944 4.0104 7.7271 8.1758 9.9531 3.5271 0.56709-1.1843-0.10231-2.6379-0.65017-3.7035-1.499-2.9152-4.5277-4.7778-5.8942-7.7611-1.4212-3.1023 3.5116-2.5164 5.058-1.7999 1.3406 0.62106 2.3072 1.8657 3.7042 2.329-0.43638-4.022-5.335-6.4057-8.9958-5.6783-1.3197 0.26229-3.0954 0.81491-3.6883 2.1532-0.58896 1.3291 0.17551 3.2607 0.87824 4.4071 1.7145 2.797 4.9969 4.9068 6.2608 7.9368 0.94756 2.2714-3.5556 0.85337-4.3326 0.40922-0.85761-0.49001-1.4921-1.2555-2.2931-1.8196m-28.399-2.1167c0.35525 1.2019 0.0411 2.476 0.25823 3.7042 0.12682 0.71755 1.291 4.7235 2.5324 2.9221 0.53746-0.77982 0.04586-2.5695-0.07003-3.4512-0.27746-2.1128 0.28134-4.2314 0.27799-6.35-0.0016-0.96396-0.02222-2.0962-0.901-2.7159-1.2534-0.88353-2.3283 0.52317-2.8997 1.4811-1.5046 2.5227-1.8195 5.7767-3.9912 7.9049-2.5485 2.4973-4.7189-0.84349-4.8923-3.3188-0.07867-1.1215 0.05362-2.2428 0.21078-3.3514 0.25329-1.7849 1.1395-3.3602 1.4552-5.1153 0.26688-1.4824-0.85496-3.253-2.3186-1.7237-0.90928 0.95021-1.1936 2.6077-1.5023 3.8403-0.886 3.54-1.9914 9.1281 1.0878 11.962 4.5044 4.145 10.049-1.022 10.753-5.7882z" fill="#fff"/></g></svg>
