<?xml version="1.0" encoding="UTF-8" standalone="no"?>
<!-- Generator: Adobe Illustrator 16.0.0, SVG Export Plug-In . SVG Version: 6.00 Build 0)  -->

<svg
   xmlns:dc="http://purl.org/dc/elements/1.1/"
   xmlns:cc="http://creativecommons.org/ns#"
   xmlns:rdf="http://www.w3.org/1999/02/22-rdf-syntax-ns#"
   xmlns:svg="http://www.w3.org/2000/svg"
   xmlns="http://www.w3.org/2000/svg"
   xmlns:sodipodi="http://sodipodi.sourceforge.net/DTD/sodipodi-0.dtd"
   xmlns:inkscape="http://www.inkscape.org/namespaces/inkscape"
   version="1.1"
   id="Camada_1"
   x="0px"
   y="0px"
   width="189.90891"
   height="50"
   viewBox="0 0 189.9089 50.000001"
   enable-background="new 0 0 1051.447 364.481"
   xml:space="preserve"
   inkscape:version="0.91 r13725"
   sodipodi:docname="appsomos.svg"><metadata
     id="metadata111"><rdf:RDF><cc:Work
         rdf:about=""><dc:format>image/svg+xml</dc:format><dc:type
           rdf:resource="http://purl.org/dc/dcmitype/StillImage" /><dc:title></dc:title></cc:Work></rdf:RDF></metadata><defs
     id="defs109" /><sodipodi:namedview
     pagecolor="#888888"
     bordercolor="#666666"
     borderopacity="1"
     objecttolerance="10"
     gridtolerance="10"
     guidetolerance="10"
     inkscape:pageopacity="1"
     inkscape:pageshadow="2"
     inkscape:window-width="1920"
     inkscape:window-height="1017"
     id="namedview107"
     showgrid="false"
     fit-margin-top="0"
     fit-margin-left="0"
     fit-margin-right="0"
     fit-margin-bottom="0"
     inkscape:zoom="4"
     inkscape:cx="80.25825"
     inkscape:cy="53.687819"
     inkscape:window-x="0"
     inkscape:window-y="30"
     inkscape:window-maximized="1"
     inkscape:current-layer="Camada_1" /><g
     id="g3"
     transform="matrix(0.21701671,0,0,0.21701671,-5.0789354,-3.4404473)"><g
       id="g9"
       transform="translate(-589.44757,-25.489625)"><path
         d="m 849.699,76.995 0,-29.278 c -7.503,-4.061 -16.082,-6.374 -25.218,-6.374 -30.326,0 -54.24,25.383 -54.24,55.442 0,29.923 24.046,55.438 54.24,55.438 30.194,0 54.24,-25.515 54.24,-55.438 0,-6.93 -1.277,-13.617 -3.605,-19.791 l -25.417,0 z m -25.218,47.979 c -15.641,0 -28.184,-12.547 -28.184,-28.188 0,-15.76 12.42,-28.184 28.184,-28.184 15.76,0 28.184,12.424 28.184,28.184 0,15.64 -12.556,28.188 -28.184,28.188 z"
         id="path11"
         inkscape:connector-curvature="0"
         style="fill:#ee0063;fill-opacity:1" /><path
         d="m 824.735,195.377 c -0.004,0 -42.245,-41.694 -42.329,-40.952 l 0,77.575 20.1,0 0,-32.868 22.229,21.415 0,0 0,0 0,0 0,0 22.261,-21.415 0,32.868 20.083,0 0,-77.575 c -0.056,-0.742 -42.326,40.952 -42.344,40.952 z"
         id="path13"
         inkscape:connector-curvature="0"
         style="fill:#212220;fill-opacity:1" /><path
         d="m 925.771,155.758 c -21.025,0 -38.966,16.905 -38.966,38.116 0,21.217 17.94,38.126 38.966,38.126 21.122,0 38.956,-16.816 38.956,-38.126 10e-4,-21.305 -17.833,-38.116 -38.956,-38.116 z m 0,57.92 c -10.978,0 -19.809,-8.817 -19.809,-19.804 0,-10.977 8.831,-19.803 19.809,-19.803 11.083,0 19.803,8.716 19.803,19.803 0,11.071 -8.72,19.804 -19.803,19.804 z"
         id="path15"
         inkscape:connector-curvature="0"
         style="fill:#212220;fill-opacity:1" /><path
         d="m 726.604,155.758 c -21.029,0 -38.953,16.905 -38.953,38.116 0,21.217 17.924,38.126 38.953,38.126 21.118,0 38.952,-16.816 38.952,-38.126 0,-21.305 -17.834,-38.116 -38.952,-38.116 z m 0,57.92 c -10.981,0 -19.815,-8.817 -19.815,-19.804 0,-10.977 8.834,-19.803 19.815,-19.803 11.078,0 19.794,8.716 19.794,19.803 -10e-4,11.071 -8.716,19.804 -19.794,19.804 z"
         id="path17"
         inkscape:connector-curvature="0"
         style="fill:#212220;fill-opacity:1" /><path
         d="m 642.418,232.429 c -3.983,0 -7.562,-0.425 -10.748,-1.248 -3.179,-0.849 -5.97,-1.896 -8.384,-3.148 -2.407,-1.256 -4.478,-2.669 -6.188,-4.239 -1.71,-1.578 -3.132,-3.093 -4.247,-4.561 l 13.841,-10.379 c 1.757,2.163 3.768,3.983 6.068,5.498 2.316,1.503 5.244,2.254 8.817,2.254 2.873,0 5.088,-0.445 6.653,-1.311 1.579,-0.87 2.351,-2.317 2.351,-4.35 0,-1.54 -0.561,-2.741 -1.706,-3.615 -1.158,-0.879 -2.936,-1.711 -5.296,-2.47 l -8.371,-2.835 c -2.588,-0.845 -4.985,-1.884 -7.15,-3.147 -2.159,-1.257 -4.044,-2.763 -5.617,-4.503 -1.563,-1.739 -2.784,-3.746 -3.654,-6.021 -0.882,-2.282 -1.319,-4.875 -1.319,-7.815 0,-3.476 0.662,-6.573 1.99,-9.22 1.337,-2.661 3.132,-4.871 5.394,-6.658 2.266,-1.791 4.892,-3.131 7.823,-4.04 2.924,-0.911 5.971,-1.356 9.106,-1.356 3.153,0 5.963,0.249 8.444,0.784 2.481,0.513 4.663,1.218 6.548,2.088 1.909,0.873 3.543,1.875 5.002,2.999 1.417,1.12 2.656,2.296 3.708,3.569 l -10.9,11.418 c -1.468,-1.54 -3.084,-2.77 -4.824,-3.721 -1.743,-0.955 -4.061,-1.409 -6.925,-1.409 -2.296,0 -4.026,0.454 -5.177,1.409 -1.163,0.951 -1.718,2.122 -1.718,3.521 0,1.393 0.378,2.471 1.183,3.233 0.812,0.768 2.08,1.431 3.828,1.994 l 9.44,3.152 c 3.557,1.18 6.564,2.495 9.009,3.925 2.443,1.431 4.417,3.052 5.885,4.821 1.451,1.795 2.525,3.737 3.188,5.881 0.675,2.13 0.997,4.446 0.997,6.972 0,3.284 -0.514,6.305 -1.592,9.06 -1.03,2.758 -2.647,5.147 -4.845,7.133 -2.212,1.989 -5.024,3.543 -8.449,4.65 -3.437,1.124 -7.488,1.685 -12.165,1.685 z"
         id="path19"
         inkscape:connector-curvature="0"
         style="fill:#212220;fill-opacity:1" /><path
         d="m 1009.404,232.429 c -3.993,0 -7.569,-0.425 -10.752,-1.248 -3.178,-0.849 -5.974,-1.896 -8.385,-3.148 -2.419,-1.256 -4.485,-2.669 -6.178,-4.239 -1.723,-1.578 -3.14,-3.093 -4.26,-4.561 l 13.854,-10.379 c 1.735,2.163 3.772,3.983 6.081,5.498 2.277,1.503 5.236,2.254 8.791,2.254 2.86,0 5.088,-0.445 6.662,-1.311 1.578,-0.87 2.347,-2.317 2.347,-4.35 0,-1.54 -0.568,-2.741 -1.723,-3.615 -1.153,-0.879 -2.911,-1.711 -5.283,-2.47 l -8.389,-2.835 c -2.593,-0.845 -4.969,-1.884 -7.128,-3.147 -2.164,-1.257 -4.035,-2.763 -5.609,-4.503 -1.584,-1.739 -2.797,-3.746 -3.685,-6.021 -0.86,-2.282 -1.311,-4.875 -1.311,-7.815 0,-3.476 0.68,-6.573 1.999,-9.22 1.341,-2.661 3.145,-4.871 5.4,-6.658 2.267,-1.791 4.872,-3.131 7.805,-4.04 2.943,-0.911 5.982,-1.356 9.135,-1.356 3.137,0 5.94,0.249 8.436,0.784 2.457,0.513 4.651,1.218 6.548,2.088 1.879,0.873 3.538,1.875 4.994,2.999 1.422,1.12 2.673,2.296 3.717,3.569 l -10.913,11.418 c -1.464,-1.54 -3.077,-2.77 -4.821,-3.721 -1.743,-0.955 -4.061,-1.409 -6.907,-1.409 -2.309,0 -4.052,0.454 -5.194,1.409 -1.162,0.951 -1.744,2.122 -1.744,3.521 0,1.393 0.421,2.471 1.201,3.233 0.819,0.768 2.105,1.431 3.833,1.994 l 9.436,3.152 c 3.568,1.18 6.581,2.495 9.026,3.925 2.439,1.431 4.408,3.052 5.859,4.821 1.48,1.795 2.551,3.737 3.2,5.881 0.665,2.13 1.004,4.446 1.004,6.972 0,3.284 -0.53,6.305 -1.578,9.06 -1.039,2.758 -2.66,5.147 -4.87,7.133 -2.207,1.989 -5.024,3.543 -8.444,4.65 -3.421,1.124 -7.486,1.685 -12.154,1.685 z"
         id="path21"
         inkscape:connector-curvature="0"
         style="fill:#212220;fill-opacity:1" /><g
         id="g23"
         style="fill:#212220;fill-opacity:1"><path
           d="m 848.918,264.286 9.98,0 0,1.74 -11.891,0 0,-18.67 11.575,0 0,1.748 -9.665,0 0,6.36 9.038,0 0,1.728 -9.038,0 0,7.094 z"
           id="path25"
           inkscape:connector-curvature="0"
           style="fill:#212220;fill-opacity:1" /><path
           d="m 868.712,247.356 6.213,0 c 1.149,0 2.309,0.199 3.475,0.58 1.176,0.387 2.229,0.969 3.174,1.749 0.935,0.785 1.702,1.773 2.271,2.933 0.582,1.176 0.896,2.529 0.896,4.077 0,1.565 -0.313,2.933 -0.896,4.09 -0.568,1.163 -1.336,2.126 -2.271,2.92 -0.945,0.765 -1.998,1.349 -3.174,1.743 -1.166,0.392 -2.325,0.578 -3.475,0.578 l -6.213,0 0,-18.67 z m 1.919,16.93 3.679,0 c 1.426,0 2.639,-0.208 3.709,-0.64 1.035,-0.429 1.904,-0.997 2.596,-1.714 0.705,-0.71 1.201,-1.528 1.554,-2.433 0.326,-0.899 0.488,-1.838 0.488,-2.805 0,-0.968 -0.162,-1.909 -0.488,-2.809 -0.353,-0.904 -0.849,-1.716 -1.554,-2.428 -0.691,-0.712 -1.561,-1.285 -2.596,-1.718 -1.07,-0.42 -2.283,-0.637 -3.709,-0.637 l -3.679,0 0,15.184 z"
           id="path27"
           inkscape:connector-curvature="0"
           style="fill:#212220;fill-opacity:1" /><path
           d="m 908.191,259.076 c 0,0.763 -0.098,1.6 -0.28,2.452 -0.174,0.883 -0.521,1.689 -1.03,2.415 -0.526,0.737 -1.215,1.353 -2.105,1.824 -0.899,0.501 -2.011,0.733 -3.403,0.733 -1.43,0 -2.567,-0.232 -3.444,-0.733 -0.866,-0.472 -1.563,-1.087 -2.084,-1.824 -0.501,-0.726 -0.854,-1.532 -1.031,-2.415 -0.187,-0.853 -0.284,-1.689 -0.284,-2.452 l 0,-11.72 1.893,0 0,11.499 c 0,0.903 0.098,1.677 0.283,2.304 0.162,0.653 0.392,1.188 0.68,1.629 0.311,0.434 0.637,0.786 0.989,1.044 0.355,0.246 0.729,0.45 1.077,0.603 0.37,0.123 0.718,0.212 1.04,0.26 0.335,0.054 0.606,0.072 0.882,0.072 0.225,0 0.51,-0.019 0.846,-0.072 0.343,-0.048 0.691,-0.137 1.064,-0.26 0.356,-0.152 0.73,-0.356 1.078,-0.603 0.359,-0.258 0.675,-0.61 0.979,-1.044 0.275,-0.44 0.522,-0.976 0.684,-1.629 0.194,-0.627 0.271,-1.4 0.271,-2.304 l 0,-11.499 1.896,0 0,11.72 z"
           id="path29"
           inkscape:connector-curvature="0"
           style="fill:#212220;fill-opacity:1" /><path
           d="m 934.644,263.081 c -0.306,0.471 -0.7,0.916 -1.171,1.354 -0.476,0.411 -0.997,0.786 -1.6,1.091 -0.586,0.298 -1.24,0.544 -1.927,0.704 -0.705,0.191 -1.451,0.271 -2.193,0.271 -1.396,0 -2.69,-0.25 -3.866,-0.733 -1.191,-0.492 -2.24,-1.188 -3.102,-2.041 -0.861,-0.887 -1.545,-1.889 -2.036,-3.102 -0.497,-1.192 -0.752,-2.5 -0.752,-3.93 0,-1.431 0.255,-2.72 0.752,-3.942 0.491,-1.18 1.175,-2.21 2.036,-3.089 0.861,-0.869 1.91,-1.561 3.102,-2.036 1.176,-0.501 2.47,-0.747 3.866,-0.747 1.158,0 2.309,0.229 3.467,0.691 1.162,0.45 2.159,1.196 2.983,2.266 l -1.673,1.231 c -0.191,-0.297 -0.445,-0.582 -0.78,-0.896 -0.327,-0.289 -0.714,-0.556 -1.154,-0.781 -0.429,-0.233 -0.891,-0.424 -1.366,-0.556 -0.505,-0.145 -1.014,-0.212 -1.477,-0.212 -1.21,0 -2.279,0.212 -3.237,0.649 -0.938,0.445 -1.739,1.039 -2.397,1.778 -0.68,0.737 -1.172,1.591 -1.528,2.565 -0.364,0.973 -0.521,1.999 -0.521,3.077 0,1.073 0.157,2.109 0.521,3.067 0.356,0.98 0.849,1.838 1.528,2.571 0.658,0.747 1.459,1.338 2.397,1.77 0.958,0.438 2.027,0.663 3.237,0.663 0.463,0 0.972,-0.056 1.463,-0.128 0.471,-0.098 0.951,-0.238 1.409,-0.454 0.467,-0.207 0.935,-0.496 1.324,-0.854 0.415,-0.368 0.789,-0.814 1.129,-1.361 l 1.566,1.114 z"
           id="path31"
           inkscape:connector-curvature="0"
           style="fill:#212220;fill-opacity:1" /><path
           d="m 943.852,266.026 -2.228,0 8.139,-18.67 1.846,0 8.121,18.67 -2.211,0 -2.062,-4.892 -9.553,0 -2.052,4.892 z m 2.757,-6.64 8.097,0 -4.019,-9.803 -4.078,9.803 z"
           id="path33"
           inkscape:connector-curvature="0"
           style="fill:#212220;fill-opacity:1" /><path
           d="m 975.638,267.609 0.051,0.033 c 0.135,-0.059 0.288,-0.094 0.432,-0.145 0.153,-0.025 0.318,-0.046 0.506,-0.046 0.53,0 0.997,0.174 1.404,0.525 0.433,0.332 0.637,0.823 0.637,1.452 0,0.406 -0.094,0.768 -0.284,1.052 -0.174,0.31 -0.424,0.56 -0.714,0.727 -0.287,0.194 -0.598,0.325 -0.967,0.398 -0.361,0.114 -0.717,0.135 -1.064,0.135 -0.926,0 -1.765,-0.208 -2.567,-0.619 l 0.425,-0.946 c 0.585,0.306 1.251,0.472 1.946,0.472 0.382,0 0.76,-0.085 1.121,-0.263 0.339,-0.188 0.513,-0.484 0.513,-0.921 0,-0.081 -0.004,-0.183 -0.055,-0.289 -0.021,-0.119 -0.098,-0.255 -0.174,-0.36 -0.094,-0.102 -0.221,-0.217 -0.408,-0.284 -0.156,-0.077 -0.386,-0.123 -0.645,-0.123 -0.254,0 -0.462,0.013 -0.649,0.067 -0.212,0.067 -0.398,0.123 -0.568,0.22 l -0.471,-0.449 1.362,-1.858 c -0.776,-0.11 -1.549,-0.317 -2.292,-0.619 -1.188,-0.492 -2.193,-1.188 -3.067,-2.041 -0.883,-0.887 -1.562,-1.889 -2.058,-3.102 -0.479,-1.192 -0.726,-2.5 -0.726,-3.93 0,-1.431 0.246,-2.72 0.726,-3.942 0.496,-1.18 1.175,-2.21 2.058,-3.089 0.874,-0.869 1.88,-1.561 3.081,-2.036 1.196,-0.501 2.481,-0.747 3.882,-0.747 1.138,0 2.3,0.229 3.459,0.691 1.176,0.45 2.168,1.196 2.978,2.266 l -1.672,1.231 c -0.174,-0.297 -0.44,-0.582 -0.776,-0.896 -0.339,-0.289 -0.721,-0.556 -1.128,-0.781 -0.458,-0.233 -0.904,-0.424 -1.396,-0.556 -0.505,-0.145 -0.976,-0.212 -1.464,-0.212 -1.213,0 -2.282,0.212 -3.246,0.649 -0.938,0.445 -1.739,1.039 -2.401,1.778 -0.653,0.725 -1.163,1.591 -1.516,2.554 -0.355,0.976 -0.529,2.003 -0.529,3.085 0,1.061 0.174,2.097 0.529,3.067 0.353,0.977 0.862,1.824 1.516,2.572 0.662,0.717 1.464,1.315 2.401,1.747 0.964,0.434 2.033,0.663 3.246,0.663 0.488,0 0.959,-0.047 1.447,-0.137 0.492,-0.093 0.945,-0.229 1.413,-0.437 0.487,-0.225 0.921,-0.496 1.327,-0.862 0.403,-0.343 0.795,-0.805 1.15,-1.336 l 1.541,1.111 c -0.311,0.471 -0.684,0.916 -1.163,1.354 -0.459,0.411 -1.002,0.786 -1.596,1.091 -0.585,0.298 -1.238,0.544 -1.927,0.704 -0.691,0.191 -1.438,0.271 -2.193,0.271 -0.225,0 -0.411,-0.004 -0.599,-0.028 l -0.836,1.139 z"
           id="path35"
           inkscape:connector-curvature="0"
           style="fill:#212220;fill-opacity:1" /><path
           d="m 993.157,266.026 -2.194,0 8.113,-18.67 1.839,0 8.134,18.67 -2.224,0 -2.05,-4.892 -9.543,0 -2.075,4.892 z m 2.572,-19.795 c 0.043,-0.34 0.136,-0.696 0.264,-1.01 0.085,-0.331 0.246,-0.624 0.433,-0.879 0.208,-0.258 0.453,-0.462 0.699,-0.636 0.271,-0.153 0.621,-0.229 1.02,-0.229 0.335,0 0.657,0.063 0.972,0.183 0.322,0.123 0.649,0.271 0.95,0.437 0.323,0.132 0.628,0.269 0.946,0.395 0.297,0.128 0.568,0.204 0.823,0.204 0.425,0 0.708,-0.136 0.887,-0.403 0.199,-0.271 0.318,-0.585 0.407,-0.916 l 1.142,0 c -0.056,0.34 -0.137,0.692 -0.246,1.006 -0.132,0.331 -0.28,0.628 -0.467,0.891 -0.191,0.242 -0.445,0.445 -0.713,0.603 -0.28,0.17 -0.607,0.246 -1.01,0.246 -0.306,0 -0.633,-0.067 -0.959,-0.199 -0.318,-0.14 -0.641,-0.276 -0.968,-0.407 -0.284,-0.152 -0.589,-0.301 -0.869,-0.438 -0.331,-0.109 -0.607,-0.187 -0.896,-0.187 -0.398,0 -0.688,0.136 -0.866,0.425 -0.195,0.271 -0.327,0.576 -0.399,0.916 l -1.15,0 z m 0.212,13.155 8.083,0 -4.022,-9.803 -4.061,9.803 z"
           id="path37"
           inkscape:connector-curvature="0"
           style="fill:#212220;fill-opacity:1" /><path
           d="m 1036.107,256.695 c 0,1.43 -0.255,2.737 -0.734,3.93 -0.501,1.213 -1.179,2.215 -2.05,3.102 -0.891,0.853 -1.896,1.549 -3.085,2.041 -1.188,0.483 -2.481,0.733 -3.877,0.733 -1.384,0 -2.661,-0.25 -3.854,-0.733 -1.201,-0.492 -2.207,-1.188 -3.094,-2.041 -0.869,-0.887 -1.549,-1.889 -2.04,-3.102 -0.484,-1.192 -0.735,-2.5 -0.735,-3.93 0,-1.431 0.251,-2.72 0.735,-3.942 0.491,-1.18 1.171,-2.21 2.04,-3.089 0.887,-0.869 1.893,-1.561 3.094,-2.036 1.192,-0.501 2.47,-0.747 3.854,-0.747 1.396,0 2.689,0.246 3.877,0.747 1.188,0.476 2.194,1.167 3.085,2.036 0.871,0.879 1.549,1.909 2.05,3.089 0.48,1.223 0.734,2.512 0.734,3.942 z m -2.066,0 c 0,-1.078 -0.162,-2.104 -0.535,-3.077 -0.344,-0.975 -0.835,-1.828 -1.51,-2.565 -0.646,-0.739 -1.452,-1.333 -2.419,-1.778 -0.934,-0.438 -2.028,-0.649 -3.216,-0.649 -1.189,0 -2.267,0.212 -3.209,0.649 -0.967,0.445 -1.743,1.039 -2.397,1.778 -0.661,0.737 -1.166,1.591 -1.523,2.565 -0.359,0.973 -0.543,1.999 -0.543,3.077 0,1.073 0.184,2.109 0.543,3.067 0.357,0.98 0.862,1.838 1.523,2.571 0.654,0.747 1.431,1.338 2.397,1.77 0.942,0.438 2.02,0.663 3.209,0.663 1.188,0 2.282,-0.226 3.216,-0.663 0.967,-0.432 1.773,-1.022 2.419,-1.77 0.675,-0.733 1.166,-1.591 1.51,-2.571 0.373,-0.957 0.535,-1.993 0.535,-3.067 z"
           id="path39"
           inkscape:connector-curvature="0"
           style="fill:#212220;fill-opacity:1" /></g><path
         style="fill:#ff00ff;fill-opacity:0"
         d="M 43.872184,23.806841 C 41.664041,23.388503 39.596462,22.310465 37.938479,20.713003 31.873748,14.869651 33.521118,4.7315302 41.11757,1.1484795 c 1.479998,-0.69807703 2.499403,-0.93683684 4.352663,-1.01945897 1.863411,-0.08307472 2.945397,0.0980077 4.754718,0.79575552 l 1.159369,0.44710045 0,3.2254553 0,3.2254553 2.78103,0.03818 2.781029,0.03818 0.316738,1.1968987 c 0.273996,1.0353912 0.310358,1.4724122 0.269469,3.2386672 -0.04302,1.858242 -0.08793,2.162011 -0.499646,3.379479 -0.696802,2.060474 -1.435594,3.250022 -2.973423,4.787595 -1.739402,1.739112 -3.152945,2.564103 -5.429683,3.168944 -1.219056,0.323855 -3.432427,0.387178 -4.75765,0.136111 z m 3.327271,-5.765244 C 52.350626,16.950062 53.824314,10.285813 49.62081,7.0918417 46.615323,4.808166 42.066162,5.8832994 40.413413,9.2678874 c -1.622096,3.3218156 -0.0089,7.3271706 3.437486,8.5346196 1.389026,0.486655 1.980834,0.52891 3.348556,0.23909 z"
         id="path3435"
         inkscape:connector-curvature="0"
         transform="matrix(4.6079401,0,0,4.6079401,612.851,41.343)" /><path
         style="fill:#ff00ff;fill-opacity:0"
         d="M 43.872184,23.806841 C 41.664041,23.388503 39.596462,22.310465 37.938479,20.713003 31.873748,14.869651 33.521118,4.7315302 41.11757,1.1484795 c 1.479998,-0.69807703 2.499403,-0.93683684 4.352663,-1.01945897 1.863411,-0.08307472 2.945397,0.0980077 4.754718,0.79575552 l 1.159369,0.44710045 0,3.2254553 0,3.2254553 2.78103,0.03818 2.781029,0.03818 0.316738,1.1968987 c 0.273996,1.0353912 0.310358,1.4724122 0.269469,3.2386672 -0.04302,1.858242 -0.08793,2.162011 -0.499646,3.379479 -0.696802,2.060474 -1.435594,3.250022 -2.973423,4.787595 -1.739402,1.739112 -3.152945,2.564103 -5.429683,3.168944 -1.219056,0.323855 -3.432427,0.387178 -4.75765,0.136111 z m 3.327271,-5.765244 C 52.350626,16.950062 53.824314,10.285813 49.62081,7.0918417 46.615323,4.808166 42.066162,5.8832994 40.413413,9.2678874 c -1.622096,3.3218156 -0.0089,7.3271706 3.437486,8.5346196 1.389026,0.486655 1.980834,0.52891 3.348556,0.23909 z"
         id="path3437"
         inkscape:connector-curvature="0"
         transform="matrix(4.6079401,0,0,4.6079401,612.851,41.343)" /><path
         style="fill:#ff00ff;fill-opacity:0"
         d="M 43.872184,23.806841 C 41.664041,23.388503 39.596462,22.310465 37.938479,20.713003 31.873748,14.869651 33.521118,4.7315302 41.11757,1.1484795 c 1.479998,-0.69807703 2.499403,-0.93683684 4.352663,-1.01945897 1.863411,-0.08307472 2.945397,0.0980077 4.754718,0.79575552 l 1.159369,0.44710045 0,3.2254553 0,3.2254553 2.78103,0.03818 2.781029,0.03818 0.316738,1.1968987 c 0.273996,1.0353912 0.310358,1.4724122 0.269469,3.2386672 -0.04302,1.858242 -0.08793,2.162011 -0.499646,3.379479 -0.696802,2.060474 -1.435594,3.250022 -2.973423,4.787595 -1.739402,1.739112 -3.152945,2.564103 -5.429683,3.168944 -1.219056,0.323855 -3.432427,0.387178 -4.75765,0.136111 z m 3.327271,-5.765244 C 52.350626,16.950062 53.824314,10.285813 49.62081,7.0918417 46.615323,4.808166 42.066162,5.8832994 40.413413,9.2678874 c -1.622096,3.3218156 -0.0089,7.3271706 3.437486,8.5346196 1.389026,0.486655 1.980834,0.52891 3.348556,0.23909 z"
         id="path3439"
         inkscape:connector-curvature="0"
         transform="matrix(4.6079401,0,0,4.6079401,612.851,41.343)" /><path
         style="fill:#ff00ff;fill-opacity:0"
         d="M 43.872184,23.806841 C 41.664041,23.388503 39.596462,22.310465 37.938479,20.713003 31.873748,14.869651 33.521118,4.7315302 41.11757,1.1484795 c 1.479998,-0.69807703 2.499403,-0.93683684 4.352663,-1.01945897 1.863411,-0.08307472 2.945397,0.0980077 4.754718,0.79575552 l 1.159369,0.44710045 0,3.2254553 0,3.2254553 2.78103,0.03818 2.781029,0.03818 0.316738,1.1968987 c 0.273996,1.0353912 0.310358,1.4724122 0.269469,3.2386672 -0.04302,1.858242 -0.08793,2.162011 -0.499646,3.379479 -0.696802,2.060474 -1.435594,3.250022 -2.973423,4.787595 -1.739402,1.739112 -3.152945,2.564103 -5.429683,3.168944 -1.219056,0.323855 -3.432427,0.387178 -4.75765,0.136111 z m 3.327271,-5.765244 C 52.350626,16.950062 53.824314,10.285813 49.62081,7.0918417 46.615323,4.808166 42.066162,5.8832994 40.413413,9.2678874 c -1.622096,3.3218156 -0.0089,7.3271706 3.437486,8.5346196 1.389026,0.486655 1.980834,0.52891 3.348556,0.23909 z"
         id="path3441"
         inkscape:connector-curvature="0"
         transform="matrix(4.6079401,0,0,4.6079401,612.851,41.343)" /><path
         style="fill:#ff00ff;fill-opacity:0"
         d="M 43.872184,23.806841 C 41.664041,23.388503 39.596462,22.310465 37.938479,20.713003 31.873748,14.869651 33.521118,4.7315302 41.11757,1.1484795 c 1.479998,-0.69807703 2.499403,-0.93683684 4.352663,-1.01945897 1.863411,-0.08307472 2.945397,0.0980077 4.754718,0.79575552 l 1.159369,0.44710045 0,3.2254553 0,3.2254553 2.78103,0.03818 2.781029,0.03818 0.316738,1.1968987 c 0.273996,1.0353912 0.310358,1.4724122 0.269469,3.2386672 -0.04302,1.858242 -0.08793,2.162011 -0.499646,3.379479 -0.696802,2.060474 -1.435594,3.250022 -2.973423,4.787595 -1.739402,1.739112 -3.152945,2.564103 -5.429683,3.168944 -1.219056,0.323855 -3.432427,0.387178 -4.75765,0.136111 z m 3.327271,-5.765244 C 52.350626,16.950062 53.824314,10.285813 49.62081,7.0918417 46.615323,4.808166 42.066162,5.8832994 40.413413,9.2678874 c -1.622096,3.3218156 -0.0089,7.3271706 3.437486,8.5346196 1.389026,0.486655 1.980834,0.52891 3.348556,0.23909 z"
         id="path3443"
         inkscape:connector-curvature="0"
         transform="matrix(4.6079401,0,0,4.6079401,612.851,41.343)" /></g></g><rect
     id="rect3355"
     width="0.45405805"
     height="39.364616"
     x="101.7422"
     y="5.3176913" /><g
     id="g4505"
     transform="translate(12.999993,1.4465718)"><path
       inkscape:connector-curvature="0"
       id="path4490"
       d="m 137.09953,29.744786 c -1.39106,-0.0033 -2.46764,0.228146 -3.58352,0.769303 -1.48038,0.717932 -2.53247,1.738594 -3.23107,3.132672 -0.5283,1.054237 -0.73981,1.994472 -0.73889,3.277588 0.001,1.308716 0.20873,2.223039 0.75678,3.316946 0.66232,1.321947 1.75002,2.375721 3.15951,3.064688 0.78263,0.382548 1.61326,0.628203 2.13794,0.633333 0.18214,0.0017 0.40989,0.01937 0.50631,0.03757 l 0,-0.0018 c 0.37935,0.07177 2.70472,-0.01349 3.11657,-0.114501 0.99248,-0.243499 2.11715,-0.804793 2.8822,-1.438417 1.3541,-1.121502 2.14983,-2.525282 2.4421,-4.309884 0.0976,-0.596346 0.0964,-1.784597 -0.002,-2.375893 -0.2209,-1.330976 -0.66405,-2.334994 -1.47061,-3.33126 -0.64623,-0.798233 -1.40854,-1.396082 -2.39021,-1.871374 -1.14382,-0.553793 -2.19646,-0.78596 -3.58531,-0.788982 z m -0.004,3.053952 c 0.18296,1.64e-4 0.36735,0.01886 0.58682,0.05725 1.81453,0.317389 3.08748,1.733875 3.29547,3.665818 0.0317,0.294466 0.0317,0.510617 0,0.805084 -0.21662,2.01209 -1.57814,3.449583 -3.48869,3.683707 -0.51975,0.0637 -0.87267,0.03253 -1.42948,-0.128814 -0.45334,-0.13138 -0.72557,-0.257594 -1.10206,-0.508097 -1.12472,-0.74836 -1.78372,-2.023095 -1.78372,-3.449338 0,-2.056413 1.36939,-3.72678 3.33842,-4.070149 0.21758,-0.03804 0.40028,-0.05562 0.58324,-0.05546 z"
       style="fill:#44445f;fill-opacity:0.94117647" /><path
       inkscape:connector-curvature="0"
       id="path4486"
       d="m 169.02202,29.741208 c -1.06659,0.0379 -2.16381,0.235621 -3.10048,0.583238 -0.90492,0.335834 -2.03775,0.984753 -2.03775,1.168267 0,0.05059 0.27992,0.614231 0.62081,1.252354 0.54564,1.021407 0.63117,1.161109 0.7192,1.171845 0.0687,0.0084 0.23267,-0.06718 0.52421,-0.243316 0.98558,-0.595436 2.15383,-0.976424 3.1434,-1.023351 0.80852,-0.03838 1.54185,0.196454 1.97514,0.629755 0.36913,0.369114 0.54296,0.832651 0.59398,1.5887 l 0.025,0.381073 -0.90706,0 c -1.30975,5.73e-4 -2.13943,0.08137 -3.20782,0.314878 -0.7861,0.171807 -1.42662,0.391433 -2.02165,0.692372 -0.62896,0.318095 -0.97054,0.566343 -1.37401,0.994726 -0.64732,0.687271 -0.93396,1.398507 -0.97683,2.429565 -0.064,1.539294 0.44446,2.720114 1.50997,3.513746 0.55984,0.416994 1.33568,0.739908 1.79802,0.746045 0.13612,0.0019 0.33478,0.01799 0.44191,0.03578 0.23128,0.03845 1.47349,0.01703 2.02523,-0.03399 0.42217,-0.03902 0.71996,-0.137613 1.19869,-0.400753 0.59908,-0.329301 1.17936,-0.836394 1.54754,-1.350752 l 0.17534,-0.245105 0.0322,0.375707 c 0.0172,0.206835 0.0667,0.469934 0.10913,0.583239 0.0973,0.260154 0.32078,0.517951 0.56893,0.653012 0.3865,0.210375 0.52614,0.221274 2.55301,0.221846 l 1.86064,0.0018 0,-1.340018 0,-1.340018 -0.71026,-0.01431 c -0.61612,-0.01278 -0.72857,-0.02622 -0.8373,-0.09124 -0.25196,-0.150664 -0.24509,-0.05113 -0.24509,-3.401034 0,-3.008989 -0.0106,-3.340371 -0.13955,-4.002162 -0.33773,-1.733584 -1.33891,-2.913526 -2.95377,-3.483331 -0.80932,-0.285573 -1.84423,-0.406453 -2.91082,-0.36855 z m 2.47071,7.716285 -0.0233,0.443691 c -0.0455,0.832914 -0.30156,1.534015 -0.81403,2.2274 -0.40864,0.552872 -1.09166,1.03804 -1.65131,1.173634 -0.44088,0.106795 -0.72488,0.107476 -1.10565,0 -0.52069,-0.146983 -0.89252,-0.454774 -1.11281,-0.919586 -0.48462,-1.022491 0.0253,-1.976344 1.31497,-2.461769 0.68016,-0.256014 1.55522,-0.400592 2.65678,-0.438323 l 0.73531,-0.02505 z"
       style="fill:#44445f;fill-opacity:0.94117647" /><path
       inkscape:connector-curvature="0"
       id="path4482"
       d="m 100.00125,24.73895 c -0.72557,0.006 -0.90169,0.01968 -0.92674,0.04473 -0.0844,0.08425 -0.0859,2.651353 -0.002,2.735497 0.0454,0.0454 0.2433,0.05546 1.07165,0.05546 l 1.01619,0 0,6.70009 0,6.70188 -1.01619,0 c -0.82835,0 -1.02622,0.01006 -1.07165,0.05546 -0.0771,0.07666 -0.0834,2.604172 -0.007,2.690771 0.0415,0.04652 0.6447,0.05624 4.05226,0.05725 l 4.00395,0.0018 0,-1.402635 0,-1.402636 -1.1307,0 -1.1289,0 0,-1.944726 0,-1.944726 2.38484,-0.01789 c 2.21778,-0.01574 2.42085,-0.0232 2.85536,-0.100189 1.28975,-0.228663 2.10495,-0.645811 2.93229,-1.501035 1.40454,-1.451855 1.99465,-3.829635 1.52609,-6.147266 -0.35687,-1.765145 -1.41849,-3.208197 -2.9001,-3.944912 -0.49389,-0.245585 -0.78239,-0.348074 -1.29171,-0.454426 -0.76987,-0.160818 -0.89044,-0.163262 -6.1419,-0.178908 -2.22503,-0.0066 -3.50022,-0.0095 -4.22579,-0.0036 z m 4.85913,2.991336 1.64595,0 c 2.03044,6.1e-5 2.35578,0.04317 3.04501,0.400753 0.68009,0.352847 1.13483,0.965337 1.37222,1.846326 0.0575,0.213287 0.0716,0.402228 0.0698,0.94821 -0.003,0.801281 -0.0618,1.080552 -0.35065,1.663842 -0.38192,0.771303 -1.05563,1.238452 -2.08071,1.441996 -0.22103,0.04387 -0.70727,0.06261 -1.99661,0.07693 l -1.70498,0.01789 0,-3.197079 0,-3.198868 z"
       style="fill:#44445f;fill-opacity:0.94117647" /><path
       inkscape:connector-curvature="0"
       id="path4478"
       d="m 117.48392,42.43715 0,-1.344093 0.99417,0 0.99418,0 -0.0104,-3.983581 c -0.009,-3.640436 -0.016,-3.993846 -0.0757,-4.102621 -0.11578,-0.211211 -0.20067,-0.229145 -1.15221,-0.243428 l -0.86685,-0.01298 0,-1.342682 0,-1.342672 2.1525,0.01105 c 2.14736,0.01094 2.15312,0.01125 2.41099,0.102662 0.49524,0.17563 0.8401,0.599741 0.92795,1.141193 0.0221,0.136177 0.0407,0.5281 0.0413,0.870948 l 9.1e-4,0.623349 0.15931,-0.311675 c 0.65074,-1.273044 1.67688,-2.162294 2.87919,-2.495061 0.28932,-0.08006 0.49166,-0.106699 0.93869,-0.123528 0.31343,-0.01176 0.65091,-0.0092 0.74996,0.0051 l 0.18009,0.02699 0,1.745709 0,1.74571 -0.73047,-0.002 c -0.66962,-0.002 -0.76207,0.0061 -1.10934,0.09999 -1.5219,0.410122 -2.53862,1.7275 -2.85779,3.702896 -0.05,0.309639 -0.0685,0.782938 -0.0837,2.140946 l -0.0195,1.743429 0.97841,0 0.97841,0 0,1.344093 0,1.344093 -3.74009,0 -3.74008,0 0,-1.344093 z"
       style="fill:#44445f;fill-opacity:0.94117647" /><path
       inkscape:connector-curvature="0"
       id="path4476"
       d="m 151.76668,43.693591 c -0.0213,-0.04826 -0.9482,-2.524568 -2.05986,-5.502998 l -2.02121,-5.415337 -0.82228,-0.01053 -0.82228,-0.01053 0,-1.343316 0,-1.343326 3.35051,0 3.35049,0 0,1.344094 0,1.344103 -0.72075,0 c -0.39641,0 -0.72075,0.0092 -0.72075,0.02157 0,0.01186 0.52766,1.532708 1.17257,3.379709 0.64663,1.851949 1.21822,3.553326 1.27433,3.793237 l 0.10174,0.435039 0.12754,-0.548262 c 0.0917,-0.394296 0.4467,-1.451855 1.2641,-3.766051 0.62511,-1.769787 1.14447,-3.239719 1.15412,-3.266496 0.0137,-0.03793 -0.14792,-0.04867 -0.72683,-0.04867 l -0.74439,0 0,-1.344102 0,-1.344093 3.35049,0 3.3505,0 0,1.343305 0,1.343306 -0.80575,0.01053 -0.80574,0.01053 -2.06751,5.502773 -2.06749,5.502773 -2.03645,3.48e-4 -2.03647,3.47e-4 -0.0387,-0.08763 z"
       style="fill:#44445f;fill-opacity:0.94117647" /><path
       inkscape:connector-curvature="0"
       id="path4474"
       d="m 129.25622,8.020034 c -0.68224,-0.02613 -1.43127,0.03996 -2.00376,0.187853 -0.88039,0.227417 -1.81642,0.825735 -2.39021,1.527871 l -0.22901,0.280885 -0.0215,-0.40612 c -0.0184,-0.351702 -0.0361,-0.434055 -0.13418,-0.613653 -0.18682,-0.342388 -0.49867,-0.537788 -0.99652,-0.624388 -0.16976,-0.02955 -0.9241,-0.04473 -2.23098,-0.04473 l -1.97334,0 0,1.361487 0,1.361487 0.91063,0.01252 c 0.84724,0.01094 0.91715,0.01707 0.99831,0.08945 0.20258,0.181101 0.195,-0.157273 0.195,6.91478 l 0,6.585589 -0.99472,0 -0.99294,0 0,1.363276 0,1.363276 3.75886,0 3.76063,0 0,-1.363276 0,-1.363276 -0.99472,0 -0.99295,0 0,-1.953671 0,-1.951883 0.32025,0.302354 c 1.0483,0.986176 2.24629,1.407554 3.77137,1.327495 1.26484,-0.06642 2.194,-0.356349 3.13626,-0.978624 1.52617,-1.007911 2.49192,-2.713242 2.7838,-4.909225 0.11227,-0.844836 0.0858,-2.194846 -0.0608,-3.057532 -0.51153,-3.010247 -2.32785,-4.968179 -4.96825,-5.354704 -0.2037,-0.02982 -0.42381,-0.04854 -0.65123,-0.05725 z m -0.92496,3.09868 c 0.34377,0.02206 0.68421,0.100989 0.98578,0.234369 1.31209,0.580264 2.08882,2.035415 2.08607,3.909131 -0.004,2.176404 -1.14115,3.769467 -2.89293,4.050469 -0.86067,0.138057 -1.78021,-0.180781 -2.45641,-0.8516 -0.60471,-0.599874 -0.99226,-1.431844 -1.15395,-2.477871 -0.0723,-0.4679 -0.0519,-1.354361 0.0429,-1.830225 0.31564,-1.584985 1.09346,-2.537509 2.38663,-2.926929 0.31212,-0.09398 0.65812,-0.129407 1.00188,-0.107344 z"
       style="fill:#44445f;fill-opacity:0.94117647" /><path
       inkscape:connector-curvature="0"
       id="path4470"
       d="m 145.72288,8.025401 c -0.42969,0.01058 -0.85296,0.04528 -1.1146,0.101978 -1.15391,0.250063 -2.05602,0.786146 -2.77485,1.647739 l -0.18428,0.220056 -0.0215,-0.361393 c -0.0264,-0.443209 -0.12734,-0.698477 -0.36139,-0.914218 -0.39745,-0.366344 -0.59341,-0.391808 -3.00028,-0.391808 l -1.96441,0 0,1.363276 0,1.365065 0.85875,0 c 0.69164,0 0.88125,0.0115 0.97326,0.05904 0.24915,0.128845 0.23258,-0.367115 0.23258,6.91299 l 0,6.624949 -0.97325,0 -0.97505,0 0,1.363276 0,1.363276 3.74096,0 3.73917,0 0,-1.363276 0,-1.363276 -0.97326,0 -0.97505,0 0,-1.957249 0,-1.957249 0.28268,0.277306 c 0.70754,0.692219 1.39448,1.064341 2.33117,1.264877 0.33499,0.07167 0.53315,0.08666 1.12711,0.08766 0.76971,0.0018 1.16272,-0.04107 1.73898,-0.193221 1.04072,-0.274765 1.81667,-0.723945 2.58701,-1.495667 1.08396,-1.085901 1.70994,-2.454702 1.93221,-4.227587 0.076,-0.606561 0.0744,-1.954498 -0.002,-2.553012 -0.28267,-2.220244 -1.17853,-3.878933 -2.6532,-4.912803 -0.67592,-0.473871 -1.46665,-0.773226 -2.41525,-0.914218 -0.29006,-0.0431 -0.72605,-0.0571 -1.15574,-0.04652 z m -0.53673,3.075422 c 0.10694,0.0032 0.21921,0.0161 0.38286,0.04294 1.44512,0.237222 2.40927,1.304625 2.75697,3.052164 0.0868,0.435561 0.0965,1.569432 0.0179,2.001977 -0.0765,0.420459 -0.29307,1.061362 -0.47232,1.39369 -0.48713,0.903103 -1.25656,1.494424 -2.19877,1.688887 -0.40486,0.08353 -0.62249,0.08609 -1.03408,0.01431 -0.32891,-0.05733 -0.5141,-0.1183 -0.82119,-0.271939 -1.29005,-0.645372 -2.09155,-2.384781 -1.94294,-4.215064 0.1064,-1.310139 0.47131,-2.177182 1.21121,-2.875045 0.49639,-0.468187 1.03701,-0.718638 1.7533,-0.810452 0.13946,-0.01789 0.24013,-0.02465 0.34707,-0.02147 z"
       style="fill:#44445f;fill-opacity:0.94117647" /><path
       inkscape:connector-curvature="0"
       id="path4466"
       d="m 170.95552,9.211846 0.72074,-0.700736 c 1.3886,-1.3500633 2.43285,-2.2459276 2.86387,-2.4569958 0.27561,-0.1349491 0.58876,-0.1971531 0.81885,-0.1626465 0.31927,0.047849 0.38606,0.1459299 0.95668,1.4044054 0.54249,1.1964349 0.59201,1.3574249 0.59324,1.9284869 9.2e-4,0.586317 -0.0482,0.6704 -0.67441,1.147962 -0.87392,0.666393 -2.74702,2.640674 -5.0097,5.280315 -1.7682,2.062782 -3.71853,4.507387 -4.78662,5.99973 -0.1457,0.203554 -0.31969,0.428619 -0.38664,0.500137 -0.35284,0.376833 -0.95219,0.413497 -1.45351,0.08895 -0.4343,-0.281195 -1.60965,-1.508743 -3.78947,-3.957826 -0.76981,-0.864895 -1.17304,-1.348458 -1.2345,-1.480453 -0.10122,-0.217417 -0.12374,-0.580458 -0.0492,-0.794276 0.0859,-0.246455 1.10661,-1.496904 1.83313,-2.245754 l 0.37796,-0.389593 0.32578,0 c 0.50286,0 0.5968,0.07044 1.63708,1.22722 0.4721,0.524972 0.92648,0.995928 1.00974,1.046569 0.13463,0.0819 0.16444,0.0866 0.26959,0.04304 0.0653,-0.0271 0.25187,-0.207653 0.41702,-0.403743 0.79436,-0.943141 1.98154,-2.270496 3.2218,-3.602207 0.38625,-0.414734 0.70714,-0.766826 0.71308,-0.782437"
       style="fill:#f5004f;fill-opacity:0.94117647" /><path
       inkscape:connector-curvature="0"
       id="path4464"
       d="m 169.33004,10.902 c 0.0152,-0.03987 -0.27801,-0.12265 -0.51391,-0.145031 -0.15292,-0.01452 -1.19024,0.172851 -4.54213,0.820379 -4.69594,0.907183 -4.82089,0.932979 -5.02844,1.038246 -0.56573,0.286912 -0.97686,0.917631 -0.97686,1.498612 0,0.222969 1.68783,9.035119 1.78125,9.299905 0.14915,0.422729 0.50998,0.812578 0.93706,1.012431 0.49085,0.229696 0.28355,0.25726 5.17652,-0.688478 2.39988,-0.463871 4.46737,-0.869996 4.5944,-0.902519 0.34017,-0.08711 0.56526,-0.215251 0.81298,-0.462962 0.26306,-0.263069 0.44343,-0.60833 0.4993,-0.955798 0.045,-0.279673 0.0967,0.03272 -0.55409,-3.344406 l -0.32578,-1.690437 0.23322,-0.214422 c 0.12828,-0.117936 0.52054,-0.466111 0.87171,-0.773736 0.75552,-0.661832 0.82959,-0.691136 0.89678,-0.35477 0.0225,0.112487 0.27314,1.396687 0.55706,2.853767 l 0.5162,2.649221 8.1e-4,0.68179 c 9.2e-4,0.824367 -0.0626,1.11406 -0.38954,1.77265 -0.37839,0.762255 -0.91329,1.29699 -1.67443,1.673905 -0.2357,0.116719 -0.53374,0.239195 -0.66231,0.272169 -0.31506,0.08077 -8.82396,1.72566 -9.29178,1.796186 -0.39814,0.06002 -0.81013,0.06523 -1.19597,0.01493 l 4e-5,5.5e-5 c -1.43282,-0.186531 -2.71736,-1.266553 -3.12492,-2.627393 -0.0729,-0.243387 -1.5994,-8.065181 -1.80199,-9.233336 -0.0928,-0.535165 -0.0819,-1.245951 0.026,-1.694731 0.27131,-1.128332 1.00081,-2.050595 2.02564,-2.560895 0.32687,-0.162759 0.66168,-0.265512 1.22721,-0.376598 0.26784,-0.05265 2.31906,-0.451725 4.55823,-0.886918 l 4.07124,-0.79125 0.70127,-4.7e-4 c 0.61343,-4.6e-4 0.74274,0.01084 1.03243,0.08987 0.31844,0.0869 0.82694,0.307503 1.07137,0.464731 l 0.11689,0.07515"
       style="fill:#44445f;fill-opacity:0.94117647" /><path
       inkscape:connector-curvature="0"
       id="path4462"
       d="m 108.67469,3.1054421 c -0.99881,-0.00248 -1.98229,0.010885 -1.98229,0.03936 0,0.019835 -0.0286,0.041151 -0.0644,0.048305 -0.049,0.00948 -0.75666,1.9988173 -2.85894,8.0383179 l -2.79453,8.025796 -0.86234,0.0089 -0.86055,0.01074 0,1.402635 0,1.400846 3.62289,0 3.62288,0 0,-1.402636 0,-1.402635 -0.89992,0 c -0.70381,1e-6 -0.89612,-0.01027 -0.88201,-0.0483 0.01,-0.02679 0.26061,-0.779845 0.5582,-1.674575 l 0.54209,-1.62806 2.87862,0.01074 2.88041,0.01074 0.51705,1.54755 c 0.28407,0.851901 0.52797,1.601528 0.54208,1.66563 l 0.025,0.11808 -0.89811,0 -0.89991,0 0,1.402635 0,1.400846 3.66223,0 3.66225,0 0,-1.400846 0,-1.402635 -0.87128,0 -0.87128,0 -0.15386,-0.438324 c -0.0849,-0.241056 -1.34366,-3.858466 -2.79812,-8.03832 -2.37405,-6.8225522 -2.65517,-7.6052051 -2.74265,-7.6465106 -0.0606,-0.028781 -1.07474,-0.045826 -2.07354,-0.048305 z m 0.0179,3.5996211 c 0.006,-0.00562 0.0672,0.2303662 0.13776,0.5241993 0.0916,0.3814749 1.61493,5.0918865 1.86422,5.7644035 0.0143,0.03845 -0.39913,0.04831 -1.99125,0.04831 -1.19292,0 -2.01091,-0.01461 -2.01091,-0.03578 0,-0.01964 0.38623,-1.177405 0.85875,-2.572691 0.5829,-1.721243 0.9027,-2.7263737 0.99472,-3.1273053 0.0746,-0.3250067 0.14121,-0.5960181 0.14671,-0.6011295 z"
       style="fill:#44445f;fill-opacity:0.94117647" /><path
       inkscape:connector-curvature="0"
       id="path3388"
       d="m 99.35705,20.752145 0,-1.339253 0.85069,-0.111822 0.8507,-0.111822 2.36078,-6.771682 c 1.29842,-3.724425 2.55854,-7.3230902 2.80025,-7.9970338 l 0.43948,-1.2253519 1.79865,-0.037085 c 0.98925,-0.020397 1.91919,-0.0073 2.06653,0.029102 0.2263,0.055911 0.70524,1.3181523 3.08512,8.1308567 l 2.81721,8.064671 0.88567,0 0.88567,0 -0.0367,1.322091 -0.0367,1.32209 -3.57932,0.03429 -3.57931,0.03429 0,-1.356377 0,-1.356377 0.83839,0 c 1.01278,0 0.99707,0.08876 0.3423,-1.934766 l -0.47998,-1.483321 -2.95091,0 -2.95092,0 -0.54703,1.635559 c -0.61715,1.845173 -0.63595,1.782528 0.53482,1.782528 l 0.69887,0 0,1.354337 0,1.354336 -3.54707,0 -3.54708,0 0,-1.339253 z m 11.35063,-7.765823 c 0,-0.08348 -1.76705,-5.6435431 -1.91798,-6.0349733 -0.0651,-0.1690135 -0.39409,0.6745908 -1.08699,2.7878333 -0.54645,1.666601 -0.99355,3.096136 -0.99355,3.176744 0,0.103123 0.59256,0.146563 1.99926,0.146563 1.09959,0 1.99926,-0.03428 1.99926,-0.07617 z"
       style="fill:#000000;fill-opacity:0" /><path
       inkscape:connector-curvature="0"
       id="path3390"
       d="m 99.35705,20.752145 0,-1.339253 0.85069,-0.111822 0.8507,-0.111822 2.36078,-6.771682 c 1.29842,-3.724425 2.55854,-7.3230902 2.80025,-7.9970338 l 0.43948,-1.2253519 1.79865,-0.037085 c 0.98925,-0.020397 1.91919,-0.0073 2.06653,0.029102 0.2263,0.055911 0.70524,1.3181523 3.08512,8.1308567 l 2.81721,8.064671 0.88567,0 0.88567,0 -0.0367,1.322091 -0.0367,1.32209 -3.57932,0.03429 -3.57931,0.03429 0,-1.356377 0,-1.356377 0.83839,0 c 1.01278,0 0.99707,0.08876 0.3423,-1.934766 l -0.47998,-1.483321 -2.95091,0 -2.95092,0 -0.54703,1.635559 c -0.61715,1.845173 -0.63595,1.782528 0.53482,1.782528 l 0.69887,0 0,1.354337 0,1.354336 -3.54707,0 -3.54708,0 0,-1.339253 z m 11.35063,-7.765823 c 0,-0.08348 -1.76705,-5.6435431 -1.91798,-6.0349733 -0.0651,-0.1690135 -0.39409,0.6745908 -1.08699,2.7878333 -0.54645,1.666601 -0.99355,3.096136 -0.99355,3.176744 0,0.103123 0.59256,0.146563 1.99926,0.146563 1.09959,0 1.99926,-0.03428 1.99926,-0.07617 z"
       style="fill:#000000;fill-opacity:0" /><path
       inkscape:connector-curvature="0"
       id="path3392"
       d="m 99.35705,20.752145 0,-1.339253 0.85069,-0.111822 0.8507,-0.111822 2.36078,-6.771682 c 1.29842,-3.724425 2.55854,-7.3230902 2.80025,-7.9970338 l 0.43948,-1.2253519 1.79865,-0.037085 c 0.98925,-0.020397 1.91919,-0.0073 2.06653,0.029102 0.2263,0.055911 0.70524,1.3181523 3.08512,8.1308567 l 2.81721,8.064671 0.88567,0 0.88567,0 -0.0367,1.322091 -0.0367,1.32209 -3.57932,0.03429 -3.57931,0.03429 0,-1.356377 0,-1.356377 0.83839,0 c 1.01278,0 0.99707,0.08876 0.3423,-1.934766 l -0.47998,-1.483321 -2.95091,0 -2.95092,0 -0.54703,1.635559 c -0.61715,1.845173 -0.63595,1.782528 0.53482,1.782528 l 0.69887,0 0,1.354337 0,1.354336 -3.54707,0 -3.54708,0 0,-1.339253 z m 11.35063,-7.765823 c 0,-0.08348 -1.76705,-5.6435431 -1.91798,-6.0349733 -0.0651,-0.1690135 -0.39409,0.6745908 -1.08699,2.7878333 -0.54645,1.666601 -0.99355,3.096136 -0.99355,3.176744 0,0.103123 0.59256,0.146563 1.99926,0.146563 1.09959,0 1.99926,-0.03428 1.99926,-0.07617 z"
       style="fill:#000000;fill-opacity:0" /><path
       inkscape:connector-curvature="0"
       id="path3394"
       d="m 99.35705,20.752145 0,-1.339253 0.85069,-0.111822 0.8507,-0.111822 2.36078,-6.771682 c 1.29842,-3.724425 2.55854,-7.3230902 2.80025,-7.9970338 l 0.43948,-1.2253519 1.79865,-0.037085 c 0.98925,-0.020397 1.91919,-0.0073 2.06653,0.029102 0.2263,0.055911 0.70524,1.3181523 3.08512,8.1308567 l 2.81721,8.064671 0.88567,0 0.88567,0 -0.0367,1.322091 -0.0367,1.32209 -3.57932,0.03429 -3.57931,0.03429 0,-1.356377 0,-1.356377 0.83839,0 c 1.01278,0 0.99707,0.08876 0.3423,-1.934766 l -0.47998,-1.483321 -2.95091,0 -2.95092,0 -0.54703,1.635559 c -0.61715,1.845173 -0.63595,1.782528 0.53482,1.782528 l 0.69887,0 0,1.354337 0,1.354336 -3.54707,0 -3.54708,0 0,-1.339253 z m 11.35063,-7.765823 c 0,-0.08348 -1.76705,-5.6435431 -1.91798,-6.0349733 -0.0651,-0.1690135 -0.39409,0.6745908 -1.08699,2.7878333 -0.54645,1.666601 -0.99355,3.096136 -0.99355,3.176744 0,0.103123 0.59256,0.146563 1.99926,0.146563 1.09959,0 1.99926,-0.03428 1.99926,-0.07617 z"
       style="fill:#ff00ff;fill-opacity:0" /><path
       inkscape:connector-curvature="0"
       id="path3396"
       d="m 99.35705,20.752145 0,-1.339253 0.85069,-0.111822 0.8507,-0.111822 2.36078,-6.771682 c 1.29842,-3.724425 2.55854,-7.3230902 2.80025,-7.9970338 l 0.43948,-1.2253519 1.79865,-0.037085 c 0.98925,-0.020397 1.91919,-0.0073 2.06653,0.029102 0.2263,0.055911 0.70524,1.3181523 3.08512,8.1308567 l 2.81721,8.064671 0.88567,0 0.88567,0 -0.0367,1.322091 -0.0367,1.32209 -3.57932,0.03429 -3.57931,0.03429 0,-1.356377 0,-1.356377 0.83839,0 c 1.01278,0 0.99707,0.08876 0.3423,-1.934766 l -0.47998,-1.483321 -2.95091,0 -2.95092,0 -0.54703,1.635559 c -0.61715,1.845173 -0.63595,1.782528 0.53482,1.782528 l 0.69887,0 0,1.354337 0,1.354336 -3.54707,0 -3.54708,0 0,-1.339253 z m 11.35063,-7.765823 c 0,-0.08348 -1.76705,-5.6435431 -1.91798,-6.0349733 -0.0651,-0.1690135 -0.39409,0.6745908 -1.08699,2.7878333 -0.54645,1.666601 -0.99355,3.096136 -0.99355,3.176744 0,0.103123 0.59256,0.146563 1.99926,0.146563 1.09959,0 1.99926,-0.03428 1.99926,-0.07617 z"
       style="fill:#ff00ff;fill-opacity:0" /><path
       inkscape:connector-curvature="0"
       id="path3398"
       d="m 99.35705,20.752145 0,-1.339253 0.85069,-0.111822 0.8507,-0.111822 2.36078,-6.771682 c 1.29842,-3.724425 2.55854,-7.3230902 2.80025,-7.9970338 l 0.43948,-1.2253519 1.79865,-0.037085 c 0.98925,-0.020397 1.91919,-0.0073 2.06653,0.029102 0.2263,0.055911 0.70524,1.3181523 3.08512,8.1308567 l 2.81721,8.064671 0.88567,0 0.88567,0 -0.0367,1.322091 -0.0367,1.32209 -3.57932,0.03429 -3.57931,0.03429 0,-1.356377 0,-1.356377 0.83839,0 c 1.01278,0 0.99707,0.08876 0.3423,-1.934766 l -0.47998,-1.483321 -2.95091,0 -2.95092,0 -0.54703,1.635559 c -0.61715,1.845173 -0.63595,1.782528 0.53482,1.782528 l 0.69887,0 0,1.354337 0,1.354336 -3.54707,0 -3.54708,0 0,-1.339253 z m 11.35063,-7.765823 c 0,-0.08348 -1.76705,-5.6435431 -1.91798,-6.0349733 -0.0651,-0.1690135 -0.39409,0.6745908 -1.08699,2.7878333 -0.54645,1.666601 -0.99355,3.096136 -0.99355,3.176744 0,0.103123 0.59256,0.146563 1.99926,0.146563 1.09959,0 1.99926,-0.03428 1.99926,-0.07617 z"
       style="fill:#ff00ff;fill-opacity:0" /><path
       inkscape:connector-curvature="0"
       id="path3400"
       d="m 99.35705,20.752145 0,-1.339253 0.85069,-0.111822 0.8507,-0.111822 2.36078,-6.771682 c 1.29842,-3.724425 2.55854,-7.3230902 2.80025,-7.9970338 l 0.43948,-1.2253519 1.79865,-0.037085 c 0.98925,-0.020397 1.91919,-0.0073 2.06653,0.029102 0.2263,0.055911 0.70524,1.3181523 3.08512,8.1308567 l 2.81721,8.064671 0.88567,0 0.88567,0 -0.0367,1.322091 -0.0367,1.32209 -3.57932,0.03429 -3.57931,0.03429 0,-1.356377 0,-1.356377 0.83839,0 c 1.01278,0 0.99707,0.08876 0.3423,-1.934766 l -0.47998,-1.483321 -2.95091,0 -2.95092,0 -0.54703,1.635559 c -0.61715,1.845173 -0.63595,1.782528 0.53482,1.782528 l 0.69887,0 0,1.354337 0,1.354336 -3.54707,0 -3.54708,0 0,-1.339253 z m 11.35063,-7.765823 c 0,-0.08348 -1.76705,-5.6435431 -1.91798,-6.0349733 -0.0651,-0.1690135 -0.39409,0.6745908 -1.08699,2.7878333 -0.54645,1.666601 -0.99355,3.096136 -0.99355,3.176744 0,0.103123 0.59256,0.146563 1.99926,0.146563 1.09959,0 1.99926,-0.03428 1.99926,-0.07617 z"
       style="fill:#ff00ff;fill-opacity:0" /><path
       inkscape:connector-curvature="0"
       id="path3402"
       d="m 99.35705,20.752145 0,-1.339253 0.85069,-0.111822 0.8507,-0.111822 2.36078,-6.771682 c 1.29842,-3.724425 2.55854,-7.3230902 2.80025,-7.9970338 l 0.43948,-1.2253519 1.79865,-0.037085 c 0.98925,-0.020397 1.91919,-0.0073 2.06653,0.029102 0.2263,0.055911 0.70524,1.3181523 3.08512,8.1308567 l 2.81721,8.064671 0.88567,0 0.88567,0 -0.0367,1.322091 -0.0367,1.32209 -3.57932,0.03429 -3.57931,0.03429 0,-1.356377 0,-1.356377 0.83839,0 c 1.01278,0 0.99707,0.08876 0.3423,-1.934766 l -0.47998,-1.483321 -2.95091,0 -2.95092,0 -0.54703,1.635559 c -0.61715,1.845173 -0.63595,1.782528 0.53482,1.782528 l 0.69887,0 0,1.354337 0,1.354336 -3.54707,0 -3.54708,0 0,-1.339253 z m 11.35063,-7.765823 c 0,-0.08348 -1.76705,-5.6435431 -1.91798,-6.0349733 -0.0651,-0.1690135 -0.39409,0.6745908 -1.08699,2.7878333 -0.54645,1.666601 -0.99355,3.096136 -0.99355,3.176744 0,0.103123 0.59256,0.146563 1.99926,0.146563 1.09959,0 1.99926,-0.03428 1.99926,-0.07617 z"
       style="fill:#ff00ff;fill-opacity:0" /><path
       inkscape:connector-curvature="0"
       id="path3404"
       d="m 99.35705,20.752145 0,-1.339253 0.85069,-0.111822 0.8507,-0.111822 2.36078,-6.771682 c 1.29842,-3.724425 2.55854,-7.3230902 2.80025,-7.9970338 l 0.43948,-1.2253519 1.79865,-0.037085 c 0.98925,-0.020397 1.91919,-0.0073 2.06653,0.029102 0.2263,0.055911 0.70524,1.3181523 3.08512,8.1308567 l 2.81721,8.064671 0.88567,0 0.88567,0 -0.0367,1.322091 -0.0367,1.32209 -3.57932,0.03429 -3.57931,0.03429 0,-1.356377 0,-1.356377 0.83839,0 c 1.01278,0 0.99707,0.08876 0.3423,-1.934766 l -0.47998,-1.483321 -2.95091,0 -2.95092,0 -0.54703,1.635559 c -0.61715,1.845173 -0.63595,1.782528 0.53482,1.782528 l 0.69887,0 0,1.354337 0,1.354336 -3.54707,0 -3.54708,0 0,-1.339253 z m 11.35063,-7.765823 c 0,-0.08348 -1.76705,-5.6435431 -1.91798,-6.0349733 -0.0651,-0.1690135 -0.39409,0.6745908 -1.08699,2.7878333 -0.54645,1.666601 -0.99355,3.096136 -0.99355,3.176744 0,0.103123 0.59256,0.146563 1.99926,0.146563 1.09959,0 1.99926,-0.03428 1.99926,-0.07617 z"
       style="fill:#ff00ff;fill-opacity:0" /><path
       inkscape:connector-curvature="0"
       id="path3406"
       d="m 99.35705,20.752145 0,-1.339253 0.85069,-0.111822 0.8507,-0.111822 2.36078,-6.771682 c 1.29842,-3.724425 2.55854,-7.3230902 2.80025,-7.9970338 l 0.43948,-1.2253519 1.79865,-0.037085 c 0.98925,-0.020397 1.91919,-0.0073 2.06653,0.029102 0.2263,0.055911 0.70524,1.3181523 3.08512,8.1308567 l 2.81721,8.064671 0.88567,0 0.88567,0 -0.0367,1.322091 -0.0367,1.32209 -3.57932,0.03429 -3.57931,0.03429 0,-1.356377 0,-1.356377 0.83839,0 c 1.01278,0 0.99707,0.08876 0.3423,-1.934766 l -0.47998,-1.483321 -2.95091,0 -2.95092,0 -0.54703,1.635559 c -0.61715,1.845173 -0.63595,1.782528 0.53482,1.782528 l 0.69887,0 0,1.354337 0,1.354336 -3.54707,0 -3.54708,0 0,-1.339253 z m 11.35063,-7.765823 c 0,-0.08348 -1.76705,-5.6435431 -1.91798,-6.0349733 -0.0651,-0.1690135 -0.39409,0.6745908 -1.08699,2.7878333 -0.54645,1.666601 -0.99355,3.096136 -0.99355,3.176744 0,0.103123 0.59256,0.146563 1.99926,0.146563 1.09959,0 1.99926,-0.03428 1.99926,-0.07617 z"
       style="fill:#ff00ff;fill-opacity:0" /><path
       inkscape:connector-curvature="0"
       id="path3408"
       d="m 99.35705,20.752145 0,-1.339253 0.85069,-0.111822 0.8507,-0.111822 2.36078,-6.771682 c 1.29842,-3.724425 2.55854,-7.3230902 2.80025,-7.9970338 l 0.43948,-1.2253519 1.79865,-0.037085 c 0.98925,-0.020397 1.91919,-0.0073 2.06653,0.029102 0.2263,0.055911 0.70524,1.3181523 3.08512,8.1308567 l 2.81721,8.064671 0.88567,0 0.88567,0 -0.0367,1.322091 -0.0367,1.32209 -3.57932,0.03429 -3.57931,0.03429 0,-1.356377 0,-1.356377 0.83839,0 c 1.01278,0 0.99707,0.08876 0.3423,-1.934766 l -0.47998,-1.483321 -2.95091,0 -2.95092,0 -0.54703,1.635559 c -0.61715,1.845173 -0.63595,1.782528 0.53482,1.782528 l 0.69887,0 0,1.354337 0,1.354336 -3.54707,0 -3.54708,0 0,-1.339253 z m 11.35063,-7.765823 c 0,-0.08348 -1.76705,-5.6435431 -1.91798,-6.0349733 -0.0651,-0.1690135 -0.39409,0.6745908 -1.08699,2.7878333 -0.54645,1.666601 -0.99355,3.096136 -0.99355,3.176744 0,0.103123 0.59256,0.146563 1.99926,0.146563 1.09959,0 1.99926,-0.03428 1.99926,-0.07617 z"
       style="fill:#ff00ff;fill-opacity:0" /><path
       inkscape:connector-curvature="0"
       id="path3410"
       d="m 99.35705,20.752145 0,-1.339253 0.85069,-0.111822 0.8507,-0.111822 2.36078,-6.771682 c 1.29842,-3.724425 2.55854,-7.3230902 2.80025,-7.9970338 l 0.43948,-1.2253519 1.79865,-0.037085 c 0.98925,-0.020397 1.91919,-0.0073 2.06653,0.029102 0.2263,0.055911 0.70524,1.3181523 3.08512,8.1308567 l 2.81721,8.064671 0.88567,0 0.88567,0 -0.0367,1.322091 -0.0367,1.32209 -3.57932,0.03429 -3.57931,0.03429 0,-1.356377 0,-1.356377 0.83839,0 c 1.01278,0 0.99707,0.08876 0.3423,-1.934766 l -0.47998,-1.483321 -2.95091,0 -2.95092,0 -0.54703,1.635559 c -0.61715,1.845173 -0.63595,1.782528 0.53482,1.782528 l 0.69887,0 0,1.354337 0,1.354336 -3.54707,0 -3.54708,0 0,-1.339253 z m 11.35063,-7.765823 c 0,-0.08348 -1.76705,-5.6435431 -1.91798,-6.0349733 -0.0651,-0.1690135 -0.39409,0.6745908 -1.08699,2.7878333 -0.54645,1.666601 -0.99355,3.096136 -0.99355,3.176744 0,0.103123 0.59256,0.146563 1.99926,0.146563 1.09959,0 1.99926,-0.03428 1.99926,-0.07617 z"
       style="fill:#ff00ff;fill-opacity:0" /><path
       inkscape:connector-curvature="0"
       id="path3412"
       d="m 99.35705,20.752145 0,-1.339253 0.85069,-0.111822 0.8507,-0.111822 2.36078,-6.771682 c 1.29842,-3.724425 2.55854,-7.3230902 2.80025,-7.9970338 l 0.43948,-1.2253519 1.79865,-0.037085 c 0.98925,-0.020397 1.91919,-0.0073 2.06653,0.029102 0.2263,0.055911 0.70524,1.3181523 3.08512,8.1308567 l 2.81721,8.064671 0.88567,0 0.88567,0 -0.0367,1.322091 -0.0367,1.32209 -3.57932,0.03429 -3.57931,0.03429 0,-1.356377 0,-1.356377 0.83839,0 c 1.01278,0 0.99707,0.08876 0.3423,-1.934766 l -0.47998,-1.483321 -2.95091,0 -2.95092,0 -0.54703,1.635559 c -0.61715,1.845173 -0.63595,1.782528 0.53482,1.782528 l 0.69887,0 0,1.354337 0,1.354336 -3.54707,0 -3.54708,0 0,-1.339253 z m 11.35063,-7.765823 c 0,-0.08348 -1.76705,-5.6435431 -1.91798,-6.0349733 -0.0651,-0.1690135 -0.39409,0.6745908 -1.08699,2.7878333 -0.54645,1.666601 -0.99355,3.096136 -0.99355,3.176744 0,0.103123 0.59256,0.146563 1.99926,0.146563 1.09959,0 1.99926,-0.03428 1.99926,-0.07617 z"
       style="fill:#ff00ff;fill-opacity:0" /><path
       inkscape:connector-curvature="0"
       id="path3414"
       d="m 99.35705,20.752145 0,-1.339253 0.85069,-0.111822 0.8507,-0.111822 2.36078,-6.771682 c 1.29842,-3.724425 2.55854,-7.3230902 2.80025,-7.9970338 l 0.43948,-1.2253519 1.79865,-0.037085 c 0.98925,-0.020397 1.91919,-0.0073 2.06653,0.029102 0.2263,0.055911 0.70524,1.3181523 3.08512,8.1308567 l 2.81721,8.064671 0.88567,0 0.88567,0 -0.0367,1.322091 -0.0367,1.32209 -3.57932,0.03429 -3.57931,0.03429 0,-1.356377 0,-1.356377 0.83839,0 c 1.01278,0 0.99707,0.08876 0.3423,-1.934766 l -0.47998,-1.483321 -2.95091,0 -2.95092,0 -0.54703,1.635559 c -0.61715,1.845173 -0.63595,1.782528 0.53482,1.782528 l 0.69887,0 0,1.354337 0,1.354336 -3.54707,0 -3.54708,0 0,-1.339253 z m 11.35063,-7.765823 c 0,-0.08348 -1.76705,-5.6435431 -1.91798,-6.0349733 -0.0651,-0.1690135 -0.39409,0.6745908 -1.08699,2.7878333 -0.54645,1.666601 -0.99355,3.096136 -0.99355,3.176744 0,0.103123 0.59256,0.146563 1.99926,0.146563 1.09959,0 1.99926,-0.03428 1.99926,-0.07617 z"
       style="fill:#ff00ff;fill-opacity:0" /><path
       inkscape:connector-curvature="0"
       id="path3416"
       d="m 99.35705,20.752145 0,-1.339253 0.85069,-0.111822 0.8507,-0.111822 2.36078,-6.771682 c 1.29842,-3.724425 2.55854,-7.3230902 2.80025,-7.9970338 l 0.43948,-1.2253519 1.79865,-0.037085 c 0.98925,-0.020397 1.91919,-0.0073 2.06653,0.029102 0.2263,0.055911 0.70524,1.3181523 3.08512,8.1308567 l 2.81721,8.064671 0.88567,0 0.88567,0 -0.0367,1.322091 -0.0367,1.32209 -3.57932,0.03429 -3.57931,0.03429 0,-1.356377 0,-1.356377 0.83839,0 c 1.01278,0 0.99707,0.08876 0.3423,-1.934766 l -0.47998,-1.483321 -2.95091,0 -2.95092,0 -0.54703,1.635559 c -0.61715,1.845173 -0.63595,1.782528 0.53482,1.782528 l 0.69887,0 0,1.354337 0,1.354336 -3.54707,0 -3.54708,0 0,-1.339253 z m 11.35063,-7.765823 c 0,-0.08348 -1.76705,-5.6435431 -1.91798,-6.0349733 -0.0651,-0.1690135 -0.39409,0.6745908 -1.08699,2.7878333 -0.54645,1.666601 -0.99355,3.096136 -0.99355,3.176744 0,0.103123 0.59256,0.146563 1.99926,0.146563 1.09959,0 1.99926,-0.03428 1.99926,-0.07617 z"
       style="fill:#ff00ff;fill-opacity:0" /><path
       inkscape:connector-curvature="0"
       id="path3418"
       d="m 99.35705,20.752145 0,-1.339253 0.85069,-0.111822 0.8507,-0.111822 2.36078,-6.771682 c 1.29842,-3.724425 2.55854,-7.3230902 2.80025,-7.9970338 l 0.43948,-1.2253519 1.79865,-0.037085 c 0.98925,-0.020397 1.91919,-0.0073 2.06653,0.029102 0.2263,0.055911 0.70524,1.3181523 3.08512,8.1308567 l 2.81721,8.064671 0.88567,0 0.88567,0 -0.0367,1.322091 -0.0367,1.32209 -3.57932,0.03429 -3.57931,0.03429 0,-1.356377 0,-1.356377 0.83839,0 c 1.01278,0 0.99707,0.08876 0.3423,-1.934766 l -0.47998,-1.483321 -2.95091,0 -2.95092,0 -0.54703,1.635559 c -0.61715,1.845173 -0.63595,1.782528 0.53482,1.782528 l 0.69887,0 0,1.354337 0,1.354336 -3.54707,0 -3.54708,0 0,-1.339253 z m 11.35063,-7.765823 c 0,-0.08348 -1.76705,-5.6435431 -1.91798,-6.0349733 -0.0651,-0.1690135 -0.39409,0.6745908 -1.08699,2.7878333 -0.54645,1.666601 -0.99355,3.096136 -0.99355,3.176744 0,0.103123 0.59256,0.146563 1.99926,0.146563 1.09959,0 1.99926,-0.03428 1.99926,-0.07617 z"
       style="fill:#ff00ff;fill-opacity:0" /></g></svg>