<svg width="189.91" height="50" enable-background="new 0 0 1051.447 364.481" version="1.1" viewBox="0 0 189.91 50" xml:space="preserve" xmlns="http://www.w3.org/2000/svg"><g transform="matrix(.21702 0 0 .21702 -5.0789 -3.4404)"><g transform="translate(-589.45 -25.49)"><path d="m849.7 76.995v-29.278c-7.503-4.061-16.082-6.374-25.218-6.374-30.326 0-54.24 25.383-54.24 55.442 0 29.923 24.046 55.438 54.24 55.438s54.24-25.515 54.24-55.438c0-6.93-1.277-13.617-3.605-19.791h-25.417zm-25.218 47.979c-15.641 0-28.184-12.547-28.184-28.188 0-15.76 12.42-28.184 28.184-28.184 15.76 0 28.184 12.424 28.184 28.184 0 15.64-12.556 28.188-28.184 28.188z" fill="#ee0063"/><g fill="#212220"><path d="m824.74 195.38c-4e-3 0-42.245-41.694-42.329-40.952v77.575h20.1v-32.868l22.229 21.415 22.261-21.415v32.868h20.083v-77.575c-0.056-0.742-42.326 40.952-42.344 40.952z"/><path d="m925.77 155.76c-21.025 0-38.966 16.905-38.966 38.116 0 21.217 17.94 38.126 38.966 38.126 21.122 0 38.956-16.816 38.956-38.126 1e-3 -21.305-17.833-38.116-38.956-38.116zm0 57.92c-10.978 0-19.809-8.817-19.809-19.804 0-10.977 8.831-19.803 19.809-19.803 11.083 0 19.803 8.716 19.803 19.803 0 11.071-8.72 19.804-19.803 19.804z"/><path d="m726.6 155.76c-21.029 0-38.953 16.905-38.953 38.116 0 21.217 17.924 38.126 38.953 38.126 21.118 0 38.952-16.816 38.952-38.126 0-21.305-17.834-38.116-38.952-38.116zm0 57.92c-10.981 0-19.815-8.817-19.815-19.804 0-10.977 8.834-19.803 19.815-19.803 11.078 0 19.794 8.716 19.794 19.803-1e-3 11.071-8.716 19.804-19.794 19.804z"/><path d="m642.42 232.43c-3.983 0-7.562-0.425-10.748-1.248-3.179-0.849-5.97-1.896-8.384-3.148-2.407-1.256-4.478-2.669-6.188-4.239-1.71-1.578-3.132-3.093-4.247-4.561l13.841-10.379c1.757 2.163 3.768 3.983 6.068 5.498 2.316 1.503 5.244 2.254 8.817 2.254 2.873 0 5.088-0.445 6.653-1.311 1.579-0.87 2.351-2.317 2.351-4.35 0-1.54-0.561-2.741-1.706-3.615-1.158-0.879-2.936-1.711-5.296-2.47l-8.371-2.835c-2.588-0.845-4.985-1.884-7.15-3.147-2.159-1.257-4.044-2.763-5.617-4.503-1.563-1.739-2.784-3.746-3.654-6.021-0.882-2.282-1.319-4.875-1.319-7.815 0-3.476 0.662-6.573 1.99-9.22 1.337-2.661 3.132-4.871 5.394-6.658 2.266-1.791 4.892-3.131 7.823-4.04 2.924-0.911 5.971-1.356 9.106-1.356 3.153 0 5.963 0.249 8.444 0.784 2.481 0.513 4.663 1.218 6.548 2.088 1.909 0.873 3.543 1.875 5.002 2.999 1.417 1.12 2.656 2.296 3.708 3.569l-10.9 11.418c-1.468-1.54-3.084-2.77-4.824-3.721-1.743-0.955-4.061-1.409-6.925-1.409-2.296 0-4.026 0.454-5.177 1.409-1.163 0.951-1.718 2.122-1.718 3.521 0 1.393 0.378 2.471 1.183 3.233 0.812 0.768 2.08 1.431 3.828 1.994l9.44 3.152c3.557 1.18 6.564 2.495 9.009 3.925 2.443 1.431 4.417 3.052 5.885 4.821 1.451 1.795 2.525 3.737 3.188 5.881 0.675 2.13 0.997 4.446 0.997 6.972 0 3.284-0.514 6.305-1.592 9.06-1.03 2.758-2.647 5.147-4.845 7.133-2.212 1.989-5.024 3.543-8.449 4.65-3.437 1.124-7.488 1.685-12.165 1.685z"/><path d="m1009.4 232.43c-3.993 0-7.569-0.425-10.752-1.248-3.178-0.849-5.974-1.896-8.385-3.148-2.419-1.256-4.485-2.669-6.178-4.239-1.723-1.578-3.14-3.093-4.26-4.561l13.854-10.379c1.735 2.163 3.772 3.983 6.081 5.498 2.277 1.503 5.236 2.254 8.791 2.254 2.86 0 5.088-0.445 6.662-1.311 1.578-0.87 2.347-2.317 2.347-4.35 0-1.54-0.568-2.741-1.723-3.615-1.153-0.879-2.911-1.711-5.283-2.47l-8.389-2.835c-2.593-0.845-4.969-1.884-7.128-3.147-2.164-1.257-4.035-2.763-5.609-4.503-1.584-1.739-2.797-3.746-3.685-6.021-0.86-2.282-1.311-4.875-1.311-7.815 0-3.476 0.68-6.573 1.999-9.22 1.341-2.661 3.145-4.871 5.4-6.658 2.267-1.791 4.872-3.131 7.805-4.04 2.943-0.911 5.982-1.356 9.135-1.356 3.137 0 5.94 0.249 8.436 0.784 2.457 0.513 4.651 1.218 6.548 2.088 1.879 0.873 3.538 1.875 4.994 2.999 1.422 1.12 2.673 2.296 3.717 3.569l-10.913 11.418c-1.464-1.54-3.077-2.77-4.821-3.721-1.743-0.955-4.061-1.409-6.907-1.409-2.309 0-4.052 0.454-5.194 1.409-1.162 0.951-1.744 2.122-1.744 3.521 0 1.393 0.421 2.471 1.201 3.233 0.819 0.768 2.105 1.431 3.833 1.994l9.436 3.152c3.568 1.18 6.581 2.495 9.026 3.925 2.439 1.431 4.408 3.052 5.859 4.821 1.48 1.795 2.551 3.737 3.2 5.881 0.665 2.13 1.004 4.446 1.004 6.972 0 3.284-0.53 6.305-1.578 9.06-1.039 2.758-2.66 5.147-4.87 7.133-2.207 1.989-5.024 3.543-8.444 4.65-3.421 1.124-7.486 1.685-12.154 1.685z"/><path d="m848.92 264.29h9.98v1.74h-11.891v-18.67h11.575v1.748h-9.665v6.36h9.038v1.728h-9.038v7.094z"/><path d="m868.71 247.36h6.213c1.149 0 2.309 0.199 3.475 0.58 1.176 0.387 2.229 0.969 3.174 1.749 0.935 0.785 1.702 1.773 2.271 2.933 0.582 1.176 0.896 2.529 0.896 4.077 0 1.565-0.313 2.933-0.896 4.09-0.568 1.163-1.336 2.126-2.271 2.92-0.945 0.765-1.998 1.349-3.174 1.743-1.166 0.392-2.325 0.578-3.475 0.578h-6.213v-18.67zm1.919 16.93h3.679c1.426 0 2.639-0.208 3.709-0.64 1.035-0.429 1.904-0.997 2.596-1.714 0.705-0.71 1.201-1.528 1.554-2.433 0.326-0.899 0.488-1.838 0.488-2.805 0-0.968-0.162-1.909-0.488-2.809-0.353-0.904-0.849-1.716-1.554-2.428-0.691-0.712-1.561-1.285-2.596-1.718-1.07-0.42-2.283-0.637-3.709-0.637h-3.679v15.184z"/><path d="m908.19 259.08c0 0.763-0.098 1.6-0.28 2.452-0.174 0.883-0.521 1.689-1.03 2.415-0.526 0.737-1.215 1.353-2.105 1.824-0.899 0.501-2.011 0.733-3.403 0.733-1.43 0-2.567-0.232-3.444-0.733-0.866-0.472-1.563-1.087-2.084-1.824-0.501-0.726-0.854-1.532-1.031-2.415-0.187-0.853-0.284-1.689-0.284-2.452v-11.72h1.893v11.499c0 0.903 0.098 1.677 0.283 2.304 0.162 0.653 0.392 1.188 0.68 1.629 0.311 0.434 0.637 0.786 0.989 1.044 0.355 0.246 0.729 0.45 1.077 0.603 0.37 0.123 0.718 0.212 1.04 0.26 0.335 0.054 0.606 0.072 0.882 0.072 0.225 0 0.51-0.019 0.846-0.072 0.343-0.048 0.691-0.137 1.064-0.26 0.356-0.152 0.73-0.356 1.078-0.603 0.359-0.258 0.675-0.61 0.979-1.044 0.275-0.44 0.522-0.976 0.684-1.629 0.194-0.627 0.271-1.4 0.271-2.304v-11.499h1.896v11.72z"/><path d="m934.64 263.08c-0.306 0.471-0.7 0.916-1.171 1.354-0.476 0.411-0.997 0.786-1.6 1.091-0.586 0.298-1.24 0.544-1.927 0.704-0.705 0.191-1.451 0.271-2.193 0.271-1.396 0-2.69-0.25-3.866-0.733-1.191-0.492-2.24-1.188-3.102-2.041-0.861-0.887-1.545-1.889-2.036-3.102-0.497-1.192-0.752-2.5-0.752-3.93 0-1.431 0.255-2.72 0.752-3.942 0.491-1.18 1.175-2.21 2.036-3.089 0.861-0.869 1.91-1.561 3.102-2.036 1.176-0.501 2.47-0.747 3.866-0.747 1.158 0 2.309 0.229 3.467 0.691 1.162 0.45 2.159 1.196 2.983 2.266l-1.673 1.231c-0.191-0.297-0.445-0.582-0.78-0.896-0.327-0.289-0.714-0.556-1.154-0.781-0.429-0.233-0.891-0.424-1.366-0.556-0.505-0.145-1.014-0.212-1.477-0.212-1.21 0-2.279 0.212-3.237 0.649-0.938 0.445-1.739 1.039-2.397 1.778-0.68 0.737-1.172 1.591-1.528 2.565-0.364 0.973-0.521 1.999-0.521 3.077 0 1.073 0.157 2.109 0.521 3.067 0.356 0.98 0.849 1.838 1.528 2.571 0.658 0.747 1.459 1.338 2.397 1.77 0.958 0.438 2.027 0.663 3.237 0.663 0.463 0 0.972-0.056 1.463-0.128 0.471-0.098 0.951-0.238 1.409-0.454 0.467-0.207 0.935-0.496 1.324-0.854 0.415-0.368 0.789-0.814 1.129-1.361l1.566 1.114z"/><path d="m943.85 266.03h-2.228l8.139-18.67h1.846l8.121 18.67h-2.211l-2.062-4.892h-9.553l-2.052 4.892zm2.757-6.64h8.097l-4.019-9.803-4.078 9.803z"/><path d="m975.64 267.61 0.051 0.033c0.135-0.059 0.288-0.094 0.432-0.145 0.153-0.025 0.318-0.046 0.506-0.046 0.53 0 0.997 0.174 1.404 0.525 0.433 0.332 0.637 0.823 0.637 1.452 0 0.406-0.094 0.768-0.284 1.052-0.174 0.31-0.424 0.56-0.714 0.727-0.287 0.194-0.598 0.325-0.967 0.398-0.361 0.114-0.717 0.135-1.064 0.135-0.926 0-1.765-0.208-2.567-0.619l0.425-0.946c0.585 0.306 1.251 0.472 1.946 0.472 0.382 0 0.76-0.085 1.121-0.263 0.339-0.188 0.513-0.484 0.513-0.921 0-0.081-4e-3 -0.183-0.055-0.289-0.021-0.119-0.098-0.255-0.174-0.36-0.094-0.102-0.221-0.217-0.408-0.284-0.156-0.077-0.386-0.123-0.645-0.123-0.254 0-0.462 0.013-0.649 0.067-0.212 0.067-0.398 0.123-0.568 0.22l-0.471-0.449 1.362-1.858c-0.776-0.11-1.549-0.317-2.292-0.619-1.188-0.492-2.193-1.188-3.067-2.041-0.883-0.887-1.562-1.889-2.058-3.102-0.479-1.192-0.726-2.5-0.726-3.93 0-1.431 0.246-2.72 0.726-3.942 0.496-1.18 1.175-2.21 2.058-3.089 0.874-0.869 1.88-1.561 3.081-2.036 1.196-0.501 2.481-0.747 3.882-0.747 1.138 0 2.3 0.229 3.459 0.691 1.176 0.45 2.168 1.196 2.978 2.266l-1.672 1.231c-0.174-0.297-0.44-0.582-0.776-0.896-0.339-0.289-0.721-0.556-1.128-0.781-0.458-0.233-0.904-0.424-1.396-0.556-0.505-0.145-0.976-0.212-1.464-0.212-1.213 0-2.282 0.212-3.246 0.649-0.938 0.445-1.739 1.039-2.401 1.778-0.653 0.725-1.163 1.591-1.516 2.554-0.355 0.976-0.529 2.003-0.529 3.085 0 1.061 0.174 2.097 0.529 3.067 0.353 0.977 0.862 1.824 1.516 2.572 0.662 0.717 1.464 1.315 2.401 1.747 0.964 0.434 2.033 0.663 3.246 0.663 0.488 0 0.959-0.047 1.447-0.137 0.492-0.093 0.945-0.229 1.413-0.437 0.487-0.225 0.921-0.496 1.327-0.862 0.403-0.343 0.795-0.805 1.15-1.336l1.541 1.111c-0.311 0.471-0.684 0.916-1.163 1.354-0.459 0.411-1.002 0.786-1.596 1.091-0.585 0.298-1.238 0.544-1.927 0.704-0.691 0.191-1.438 0.271-2.193 0.271-0.225 0-0.411-4e-3 -0.599-0.028l-0.836 1.139z"/><path d="m993.16 266.03h-2.194l8.113-18.67h1.839l8.134 18.67h-2.224l-2.05-4.892h-9.543l-2.075 4.892zm2.572-19.795c0.043-0.34 0.136-0.696 0.264-1.01 0.085-0.331 0.246-0.624 0.433-0.879 0.208-0.258 0.453-0.462 0.699-0.636 0.271-0.153 0.621-0.229 1.02-0.229 0.335 0 0.657 0.063 0.972 0.183 0.322 0.123 0.649 0.271 0.95 0.437 0.323 0.132 0.628 0.269 0.946 0.395 0.297 0.128 0.568 0.204 0.823 0.204 0.425 0 0.708-0.136 0.887-0.403 0.199-0.271 0.318-0.585 0.407-0.916h1.142c-0.056 0.34-0.137 0.692-0.246 1.006-0.132 0.331-0.28 0.628-0.467 0.891-0.191 0.242-0.445 0.445-0.713 0.603-0.28 0.17-0.607 0.246-1.01 0.246-0.306 0-0.633-0.067-0.959-0.199-0.318-0.14-0.641-0.276-0.968-0.407-0.284-0.152-0.589-0.301-0.869-0.438-0.331-0.109-0.607-0.187-0.896-0.187-0.398 0-0.688 0.136-0.866 0.425-0.195 0.271-0.327 0.576-0.399 0.916h-1.15zm0.212 13.155h8.083l-4.022-9.803-4.061 9.803z"/><path d="m1036.1 256.7c0 1.43-0.255 2.737-0.734 3.93-0.501 1.213-1.179 2.215-2.05 3.102-0.891 0.853-1.896 1.549-3.085 2.041-1.188 0.483-2.481 0.733-3.877 0.733-1.384 0-2.661-0.25-3.854-0.733-1.201-0.492-2.207-1.188-3.094-2.041-0.869-0.887-1.549-1.889-2.04-3.102-0.484-1.192-0.735-2.5-0.735-3.93 0-1.431 0.251-2.72 0.735-3.942 0.491-1.18 1.171-2.21 2.04-3.089 0.887-0.869 1.893-1.561 3.094-2.036 1.192-0.501 2.47-0.747 3.854-0.747 1.396 0 2.689 0.246 3.877 0.747 1.188 0.476 2.194 1.167 3.085 2.036 0.871 0.879 1.549 1.909 2.05 3.089 0.48 1.223 0.734 2.512 0.734 3.942zm-2.066 0c0-1.078-0.162-2.104-0.535-3.077-0.344-0.975-0.835-1.828-1.51-2.565-0.646-0.739-1.452-1.333-2.419-1.778-0.934-0.438-2.028-0.649-3.216-0.649-1.189 0-2.267 0.212-3.209 0.649-0.967 0.445-1.743 1.039-2.397 1.778-0.661 0.737-1.166 1.591-1.523 2.565-0.359 0.973-0.543 1.999-0.543 3.077 0 1.073 0.184 2.109 0.543 3.067 0.357 0.98 0.862 1.838 1.523 2.571 0.654 0.747 1.431 1.338 2.397 1.77 0.942 0.438 2.02 0.663 3.209 0.663 1.188 0 2.282-0.226 3.216-0.663 0.967-0.432 1.773-1.022 2.419-1.77 0.675-0.733 1.166-1.591 1.51-2.571 0.373-0.957 0.535-1.993 0.535-3.067z"/></g><g fill-opacity="0"><path transform="matrix(4.6079 0 0 4.6079 612.85 41.343)" d="m43.872 23.807c-2.2081-0.41834-4.2757-1.4964-5.9337-3.0938-6.0647-5.8434-4.4174-15.981 3.1791-19.565 1.48-0.69808 2.4994-0.93684 4.3527-1.0195 1.8634-0.083075 2.9454 0.098008 4.7547 0.79576l1.1594 0.4471v3.2255 3.2255l5.5621 0.07636 0.31674 1.1969c0.274 1.0354 0.31036 1.4724 0.26947 3.2387-0.04302 1.8582-0.08793 2.162-0.49965 3.3795-0.6968 2.0605-1.4356 3.25-2.9734 4.7876-1.7394 1.7391-3.1529 2.5641-5.4297 3.1689-1.2191 0.32386-3.4324 0.38718-4.7576 0.13611zm3.3273-5.7652c5.1512-1.0915 6.6249-7.7558 2.4214-10.95-3.0055-2.2837-7.5546-1.2085-9.2074 2.176-1.6221 3.3218-0.0089 7.3272 3.4375 8.5346 1.389 0.48666 1.9808 0.52891 3.3486 0.23909z"/><path transform="matrix(4.6079 0 0 4.6079 612.85 41.343)" d="m43.872 23.807c-2.2081-0.41834-4.2757-1.4964-5.9337-3.0938-6.0647-5.8434-4.4174-15.981 3.1791-19.565 1.48-0.69808 2.4994-0.93684 4.3527-1.0195 1.8634-0.083075 2.9454 0.098008 4.7547 0.79576l1.1594 0.4471v3.2255 3.2255l5.5621 0.07636 0.31674 1.1969c0.274 1.0354 0.31036 1.4724 0.26947 3.2387-0.04302 1.8582-0.08793 2.162-0.49965 3.3795-0.6968 2.0605-1.4356 3.25-2.9734 4.7876-1.7394 1.7391-3.1529 2.5641-5.4297 3.1689-1.2191 0.32386-3.4324 0.38718-4.7576 0.13611zm3.3273-5.7652c5.1512-1.0915 6.6249-7.7558 2.4214-10.95-3.0055-2.2837-7.5546-1.2085-9.2074 2.176-1.6221 3.3218-0.0089 7.3272 3.4375 8.5346 1.389 0.48666 1.9808 0.52891 3.3486 0.23909z"/><path transform="matrix(4.6079 0 0 4.6079 612.85 41.343)" d="m43.872 23.807c-2.2081-0.41834-4.2757-1.4964-5.9337-3.0938-6.0647-5.8434-4.4174-15.981 3.1791-19.565 1.48-0.69808 2.4994-0.93684 4.3527-1.0195 1.8634-0.083075 2.9454 0.098008 4.7547 0.79576l1.1594 0.4471v3.2255 3.2255l5.5621 0.07636 0.31674 1.1969c0.274 1.0354 0.31036 1.4724 0.26947 3.2387-0.04302 1.8582-0.08793 2.162-0.49965 3.3795-0.6968 2.0605-1.4356 3.25-2.9734 4.7876-1.7394 1.7391-3.1529 2.5641-5.4297 3.1689-1.2191 0.32386-3.4324 0.38718-4.7576 0.13611zm3.3273-5.7652c5.1512-1.0915 6.6249-7.7558 2.4214-10.95-3.0055-2.2837-7.5546-1.2085-9.2074 2.176-1.6221 3.3218-0.0089 7.3272 3.4375 8.5346 1.389 0.48666 1.9808 0.52891 3.3486 0.23909z"/><path transform="matrix(4.6079 0 0 4.6079 612.85 41.343)" d="m43.872 23.807c-2.2081-0.41834-4.2757-1.4964-5.9337-3.0938-6.0647-5.8434-4.4174-15.981 3.1791-19.565 1.48-0.69808 2.4994-0.93684 4.3527-1.0195 1.8634-0.083075 2.9454 0.098008 4.7547 0.79576l1.1594 0.4471v3.2255 3.2255l5.5621 0.07636 0.31674 1.1969c0.274 1.0354 0.31036 1.4724 0.26947 3.2387-0.04302 1.8582-0.08793 2.162-0.49965 3.3795-0.6968 2.0605-1.4356 3.25-2.9734 4.7876-1.7394 1.7391-3.1529 2.5641-5.4297 3.1689-1.2191 0.32386-3.4324 0.38718-4.7576 0.13611zm3.3273-5.7652c5.1512-1.0915 6.6249-7.7558 2.4214-10.95-3.0055-2.2837-7.5546-1.2085-9.2074 2.176-1.6221 3.3218-0.0089 7.3272 3.4375 8.5346 1.389 0.48666 1.9808 0.52891 3.3486 0.23909z"/><path transform="matrix(4.6079 0 0 4.6079 612.85 41.343)" d="m43.872 23.807c-2.2081-0.41834-4.2757-1.4964-5.9337-3.0938-6.0647-5.8434-4.4174-15.981 3.1791-19.565 1.48-0.69808 2.4994-0.93684 4.3527-1.0195 1.8634-0.083075 2.9454 0.098008 4.7547 0.79576l1.1594 0.4471v3.2255 3.2255l5.5621 0.07636 0.31674 1.1969c0.274 1.0354 0.31036 1.4724 0.26947 3.2387-0.04302 1.8582-0.08793 2.162-0.49965 3.3795-0.6968 2.0605-1.4356 3.25-2.9734 4.7876-1.7394 1.7391-3.1529 2.5641-5.4297 3.1689-1.2191 0.32386-3.4324 0.38718-4.7576 0.13611zm3.3273-5.7652c5.1512-1.0915 6.6249-7.7558 2.4214-10.95-3.0055-2.2837-7.5546-1.2085-9.2074 2.176-1.6221 3.3218-0.0089 7.3272 3.4375 8.5346 1.389 0.48666 1.9808 0.52891 3.3486 0.23909z"/></g></g></g><rect x="101.74" y="5.3177" width=".45406" height="39.365"/><g transform="translate(13 1.4466)"><g fill="#44445f" fill-opacity=".94118"><path d="m137.1 29.745c-1.3911-0.0033-2.4676 0.22815-3.5835 0.7693-1.4804 0.71793-2.5325 1.7386-3.2311 3.1327-0.5283 1.0542-0.73981 1.9945-0.73889 3.2776 1e-3 1.3087 0.20873 2.223 0.75678 3.3169 0.66232 1.3219 1.75 2.3757 3.1595 3.0647 0.78263 0.38255 1.6133 0.6282 2.1379 0.63333 0.18214 0.0017 0.40989 0.01937 0.50631 0.03757v-0.0018c0.37935 0.07177 2.7047-0.01349 3.1166-0.1145 0.99248-0.2435 2.1172-0.80479 2.8822-1.4384 1.3541-1.1215 2.1498-2.5253 2.4421-4.3099 0.0976-0.59635 0.0964-1.7846-2e-3 -2.3759-0.2209-1.331-0.66405-2.335-1.4706-3.3313-0.64623-0.79823-1.4085-1.3961-2.3902-1.8714-1.1438-0.55379-2.1965-0.78596-3.5853-0.78898zm-4e-3 3.054c0.18296 1.64e-4 0.36735 0.01886 0.58682 0.05725 1.8145 0.31739 3.0875 1.7339 3.2955 3.6658 0.0317 0.29447 0.0317 0.51062 0 0.80508-0.21662 2.0121-1.5781 3.4496-3.4887 3.6837-0.51975 0.0637-0.87267 0.03253-1.4295-0.12881-0.45334-0.13138-0.72557-0.25759-1.1021-0.5081-1.1247-0.74836-1.7837-2.0231-1.7837-3.4493 0-2.0564 1.3694-3.7268 3.3384-4.0701 0.21758-0.03804 0.40028-0.05562 0.58324-0.05546z"/><path d="m169.02 29.741c-1.0666 0.0379-2.1638 0.23562-3.1005 0.58324-0.90492 0.33583-2.0378 0.98475-2.0378 1.1683 0 0.05059 0.27992 0.61423 0.62081 1.2524 0.54564 1.0214 0.63117 1.1611 0.7192 1.1718 0.0687 0.0084 0.23267-0.06718 0.52421-0.24332 0.98558-0.59544 2.1538-0.97642 3.1434-1.0234 0.80852-0.03838 1.5418 0.19645 1.9751 0.62976 0.36913 0.36911 0.54296 0.83265 0.59398 1.5887l0.025 0.38107h-0.90706c-1.3098 5.73e-4 -2.1394 0.08137-3.2078 0.31488-0.7861 0.17181-1.4266 0.39143-2.0216 0.69237-0.62896 0.3181-0.97054 0.56634-1.374 0.99473-0.64732 0.68727-0.93396 1.3985-0.97683 2.4296-0.064 1.5393 0.44446 2.7201 1.51 3.5137 0.55984 0.41699 1.3357 0.73991 1.798 0.74604 0.13612 0.0019 0.33478 0.01799 0.44191 0.03578 0.23128 0.03845 1.4735 0.01703 2.0252-0.03399 0.42217-0.03902 0.71996-0.13761 1.1987-0.40075 0.59908-0.3293 1.1794-0.83639 1.5475-1.3508l0.17534-0.2451 0.0322 0.37571c0.0172 0.20684 0.0667 0.46993 0.10913 0.58324 0.0973 0.26015 0.32078 0.51795 0.56893 0.65301 0.3865 0.21038 0.52614 0.22127 2.553 0.22185l1.8606 0.0018v-1.34-1.34l-0.71026-0.01431c-0.61612-0.01278-0.72857-0.02622-0.8373-0.09124-0.25196-0.15066-0.24509-0.05113-0.24509-3.401 0-3.009-0.0106-3.3404-0.13955-4.0022-0.33773-1.7336-1.3389-2.9135-2.9538-3.4833-0.80932-0.28557-1.8442-0.40645-2.9108-0.36855zm2.4707 7.7163-0.0233 0.44369c-0.0455 0.83291-0.30156 1.534-0.81403 2.2274-0.40864 0.55287-1.0917 1.038-1.6513 1.1736-0.44088 0.1068-0.72488 0.10748-1.1056 0-0.52069-0.14698-0.89252-0.45477-1.1128-0.91959-0.48462-1.0225 0.0253-1.9763 1.315-2.4618 0.68016-0.25601 1.5552-0.40059 2.6568-0.43832l0.73531-0.02505z"/><path d="m100 24.739c-0.72557 6e-3 -0.90169 0.01968-0.92674 0.04473-0.0844 0.08425-0.0859 2.6514-2e-3 2.7355 0.0454 0.0454 0.2433 0.05546 1.0716 0.05546h1.0162v6.7001 6.7019h-1.0162c-0.82835 0-1.0262 0.01006-1.0716 0.05546-0.0771 0.07666-0.0834 2.6042-7e-3 2.6908 0.0415 0.04652 0.6447 0.05624 4.0523 0.05725l4.004 0.0018v-1.4026-1.4026h-1.1307-1.1289v-1.9447-1.9447l2.3848-0.01789c2.2178-0.01574 2.4208-0.0232 2.8554-0.10019 1.2898-0.22866 2.105-0.64581 2.9323-1.501 1.4045-1.4519 1.9946-3.8296 1.5261-6.1473-0.35687-1.7651-1.4185-3.2082-2.9001-3.9449-0.49389-0.24558-0.78239-0.34807-1.2917-0.45443-0.76987-0.16082-0.89044-0.16326-6.1419-0.17891-2.225-0.0066-3.5002-0.0095-4.2258-0.0036zm4.8591 2.9913h1.646c2.0304 6.1e-5 2.3558 0.04317 3.045 0.40075 0.68009 0.35285 1.1348 0.96534 1.3722 1.8463 0.0575 0.21329 0.0716 0.40223 0.0698 0.94821-3e-3 0.80128-0.0618 1.0806-0.35065 1.6638-0.38192 0.7713-1.0556 1.2385-2.0807 1.442-0.22103 0.04387-0.70727 0.06261-1.9966 0.07693l-1.705 0.01789v-3.1971-3.1989z"/><path d="m117.48 42.437v-1.3441h0.99417 0.99418l-0.0104-3.9836c-9e-3 -3.6404-0.016-3.9938-0.0757-4.1026-0.11578-0.21121-0.20067-0.22914-1.1522-0.24343l-0.86685-0.01298v-1.3427-1.3427l2.1525 0.01105c2.1474 0.01094 2.1531 0.01125 2.411 0.10266 0.49524 0.17563 0.8401 0.59974 0.92795 1.1412 0.0221 0.13618 0.0407 0.5281 0.0413 0.87095l9.1e-4 0.62335 0.15931-0.31168c0.65074-1.273 1.6769-2.1623 2.8792-2.4951 0.28932-0.08006 0.49166-0.1067 0.93869-0.12353 0.31343-0.01176 0.65091-0.0092 0.74996 0.0051l0.18009 0.02699v1.7457 1.7457l-0.73047-2e-3c-0.66962-2e-3 -0.76207 0.0061-1.1093 0.09999-1.5219 0.41012-2.5386 1.7275-2.8578 3.7029-0.05 0.30964-0.0685 0.78294-0.0837 2.1409l-0.0195 1.7434h0.97841 0.97841v1.3441 1.3441h-3.7401-3.7401v-1.3441z"/><path d="m151.77 43.694c-0.0213-0.04826-0.9482-2.5246-2.0599-5.503l-2.0212-5.4153-1.6446-0.02106v-1.3433-1.3433h3.3505 3.3505v1.3441 1.3441h-0.72075c-0.39641 0-0.72075 0.0092-0.72075 0.02157 0 0.01186 0.52766 1.5327 1.1726 3.3797 0.64663 1.8519 1.2182 3.5533 1.2743 3.7932l0.10174 0.43504 0.12754-0.54826c0.0917-0.3943 0.4467-1.4519 1.2641-3.7661 0.62511-1.7698 1.1445-3.2397 1.1541-3.2665 0.0137-0.03793-0.14792-0.04867-0.72683-0.04867h-0.74439v-1.3441-1.3441h3.3505 3.3505v1.3433 1.3433l-1.6115 0.02106-4.135 11.006-4.0729 6.95e-4 -0.0387-0.08763z"/><path d="m129.26 8.02c-0.68224-0.02613-1.4313 0.03996-2.0038 0.18785-0.88039 0.22742-1.8164 0.82574-2.3902 1.5279l-0.22901 0.28088-0.0215-0.40612c-0.0184-0.3517-0.0361-0.43406-0.13418-0.61365-0.18682-0.34239-0.49867-0.53779-0.99652-0.62439-0.16976-0.02955-0.9241-0.04473-2.231-0.04473h-1.9733v1.3615 1.3615l0.91063 0.01252c0.84724 0.01094 0.91715 0.01707 0.99831 0.08945 0.20258 0.1811 0.195-0.15727 0.195 6.9148v6.5856h-0.99472-0.99294v1.3633 1.3633h3.7589 3.7606v-1.3633-1.3633h-0.99472-0.99295v-1.9537-1.9519l0.32025 0.30235c1.0483 0.98618 2.2463 1.4076 3.7714 1.3275 1.2648-0.06642 2.194-0.35635 3.1363-0.97862 1.5262-1.0079 2.4919-2.7132 2.7838-4.9092 0.11227-0.84484 0.0858-2.1948-0.0608-3.0575-0.51153-3.0102-2.3278-4.9682-4.9682-5.3547-0.2037-0.02982-0.42381-0.04854-0.65123-0.05725zm-0.92496 3.0987c0.34377 0.02206 0.68421 0.10099 0.98578 0.23437 1.3121 0.58026 2.0888 2.0354 2.0861 3.9091-4e-3 2.1764-1.1412 3.7695-2.8929 4.0505-0.86067 0.13806-1.7802-0.18078-2.4564-0.8516-0.60471-0.59987-0.99226-1.4318-1.154-2.4779-0.0723-0.4679-0.0519-1.3544 0.0429-1.8302 0.31564-1.585 1.0935-2.5375 2.3866-2.9269 0.31212-0.09398 0.65812-0.12941 1.0019-0.10734z"/><path d="m145.72 8.0254c-0.42969 0.01058-0.85296 0.04528-1.1146 0.10198-1.1539 0.25006-2.056 0.78615-2.7748 1.6477l-0.18428 0.22006-0.0215-0.36139c-0.0264-0.44321-0.12734-0.69848-0.36139-0.91422-0.39745-0.36634-0.59341-0.39181-3.0003-0.39181h-1.9644v1.3633 1.3651h0.85875c0.69164 0 0.88125 0.0115 0.97326 0.05904 0.24915 0.12884 0.23258-0.36712 0.23258 6.913v6.6249h-0.97325-0.97505v1.3633 1.3633h3.741 3.7392v-1.3633-1.3633h-0.97326-0.97505v-1.9572-1.9572l0.28268 0.27731c0.70754 0.69222 1.3945 1.0643 2.3312 1.2649 0.33499 0.07167 0.53315 0.08666 1.1271 0.08766 0.76971 0.0018 1.1627-0.04107 1.739-0.19322 1.0407-0.27476 1.8167-0.72394 2.587-1.4957 1.084-1.0859 1.7099-2.4547 1.9322-4.2276 0.076-0.60656 0.0744-1.9545-2e-3 -2.553-0.28267-2.2202-1.1785-3.8789-2.6532-4.9128-0.67592-0.47387-1.4666-0.77323-2.4152-0.91422-0.29006-0.0431-0.72605-0.0571-1.1557-0.04652zm-0.53673 3.0754c0.10694 0.0032 0.21921 0.0161 0.38286 0.04294 1.4451 0.23722 2.4093 1.3046 2.757 3.0522 0.0868 0.43556 0.0965 1.5694 0.0179 2.002-0.0765 0.42046-0.29307 1.0614-0.47232 1.3937-0.48713 0.9031-1.2566 1.4944-2.1988 1.6889-0.40486 0.08353-0.62249 0.08609-1.0341 0.01431-0.32891-0.05733-0.5141-0.1183-0.82119-0.27194-1.29-0.64537-2.0916-2.3848-1.9429-4.2151 0.1064-1.3101 0.47131-2.1772 1.2112-2.875 0.49639-0.46819 1.037-0.71864 1.7533-0.81045 0.13946-0.01789 0.24013-0.02465 0.34707-0.02147z"/></g><g fill-opacity=".94118"><path d="m170.96 9.2118 0.72074-0.70074c1.3886-1.3501 2.4328-2.2459 2.8639-2.457 0.27561-0.13495 0.58876-0.19715 0.81885-0.16265 0.31927 0.047849 0.38606 0.14593 0.95668 1.4044 0.54249 1.1964 0.59201 1.3574 0.59324 1.9285 9.2e-4 0.58632-0.0482 0.6704-0.67441 1.148-0.87392 0.66639-2.747 2.6407-5.0097 5.2803-1.7682 2.0628-3.7185 4.5074-4.7866 5.9997-0.1457 0.20355-0.31969 0.42862-0.38664 0.50014-0.35284 0.37683-0.95219 0.4135-1.4535 0.08895-0.4343-0.2812-1.6096-1.5087-3.7895-3.9578-0.76981-0.8649-1.173-1.3485-1.2345-1.4805-0.10122-0.21742-0.12374-0.58046-0.0492-0.79428 0.0859-0.24646 1.1066-1.4969 1.8331-2.2458l0.37796-0.38959h0.32578c0.50286 0 0.5968 0.07044 1.6371 1.2272 0.4721 0.52497 0.92648 0.99593 1.0097 1.0466 0.13463 0.0819 0.16444 0.0866 0.26959 0.04304 0.0653-0.0271 0.25187-0.20765 0.41702-0.40374 0.79436-0.94314 1.9815-2.2705 3.2218-3.6022 0.38625-0.41473 0.70714-0.76683 0.71308-0.78244" fill="#f5004f"/><path d="m169.33 10.902c0.0152-0.03987-0.27801-0.12265-0.51391-0.14503-0.15292-0.01452-1.1902 0.17285-4.5421 0.82038-4.6959 0.90718-4.8209 0.93298-5.0284 1.0382-0.56573 0.28691-0.97686 0.91763-0.97686 1.4986 0 0.22297 1.6878 9.0351 1.7812 9.2999 0.14915 0.42273 0.50998 0.81258 0.93706 1.0124 0.49085 0.2297 0.28355 0.25726 5.1765-0.68848 2.3999-0.46387 4.4674-0.87 4.5944-0.90252 0.34017-0.08711 0.56526-0.21525 0.81298-0.46296 0.26306-0.26307 0.44343-0.60833 0.4993-0.9558 0.045-0.27967 0.0967 0.03272-0.55409-3.3444l-0.32578-1.6904 0.23322-0.21442c0.12828-0.11794 0.52054-0.46611 0.87171-0.77374 0.75552-0.66183 0.82959-0.69114 0.89678-0.35477 0.0225 0.11249 0.27314 1.3967 0.55706 2.8538l0.5162 2.6492 8.1e-4 0.68179c9.2e-4 0.82437-0.0626 1.1141-0.38954 1.7726-0.37839 0.76226-0.91329 1.297-1.6744 1.6739-0.2357 0.11672-0.53374 0.2392-0.66231 0.27217-0.31506 0.08077-8.824 1.7257-9.2918 1.7962-0.39814 0.06002-0.81013 0.06523-1.196 0.01493l4e-5 5.5e-5c-1.4328-0.18653-2.7174-1.2666-3.1249-2.6274-0.0729-0.24339-1.5994-8.0652-1.802-9.2333-0.0928-0.53516-0.0819-1.246 0.026-1.6947 0.27131-1.1283 1.0008-2.0506 2.0256-2.5609 0.32687-0.16276 0.66168-0.26551 1.2272-0.3766 0.26784-0.05265 2.3191-0.45172 4.5582-0.88692l4.0712-0.79125 0.70127-4.7e-4c0.61343-4.6e-4 0.74274 0.01084 1.0324 0.08987 0.31844 0.0869 0.82694 0.3075 1.0714 0.46473l0.11689 0.07515" fill="#44445f"/><path d="m108.67 3.1054c-0.99881-0.00248-1.9823 0.010885-1.9823 0.03936 0 0.019835-0.0286 0.041151-0.0644 0.048305-0.049 0.00948-0.75666 1.9988-2.8589 8.0383l-2.7945 8.0258-0.86234 0.0089-0.86055 0.01074v1.4026 1.4008h3.6229 3.6229v-1.4026-1.4026h-0.89992c-0.70381 1e-6 -0.89612-0.01027-0.88201-0.0483 0.01-0.02679 0.26061-0.77984 0.5582-1.6746l0.54209-1.6281 5.759 0.02148 0.51705 1.5476c0.28407 0.8519 0.52797 1.6015 0.54208 1.6656l0.025 0.11808h-0.89811-0.89991v1.4026 1.4008h3.6622 3.6622v-1.4008-1.4026h-0.87128-0.87128l-0.15386-0.43832c-0.0849-0.24106-1.3437-3.8585-2.7981-8.0383-2.374-6.8226-2.6552-7.6052-2.7426-7.6465-0.0606-0.028781-1.0747-0.045826-2.0735-0.048305zm0.0179 3.5996c6e-3 -0.00562 0.0672 0.23037 0.13776 0.5242 0.0916 0.38147 1.6149 5.0919 1.8642 5.7644 0.0143 0.03845-0.39913 0.04831-1.9912 0.04831-1.1929 0-2.0109-0.01461-2.0109-0.03578 0-0.01964 0.38623-1.1774 0.85875-2.5727 0.5829-1.7212 0.9027-2.7264 0.99472-3.1273 0.0746-0.32501 0.14121-0.59602 0.14671-0.60113z" fill="#44445f"/></g><g fill-opacity="0"><path d="m99.357 20.752v-1.3393l1.7014-0.22364 2.3608-6.7717c1.2984-3.7244 2.5585-7.3231 2.8002-7.997l0.43948-1.2254 1.7986-0.037085c0.98925-0.020397 1.9192-0.0073 2.0665 0.029102 0.2263 0.055911 0.70524 1.3182 3.0851 8.1309l2.8172 8.0647h0.88567 0.88567l-0.0367 1.3221-0.0367 1.3221-7.1586 0.06858v-1.3564-1.3564h0.83839c1.0128 0 0.99707 0.08876 0.3423-1.9348l-0.47998-1.4833h-2.9509-2.9509l-0.54703 1.6356c-0.61715 1.8452-0.63595 1.7825 0.53482 1.7825h0.69887v1.3543 1.3543h-3.5471-3.5471v-1.3393zm11.351-7.7658c0-0.08348-1.767-5.6435-1.918-6.035-0.0651-0.16901-0.39409 0.67459-1.087 2.7878-0.54645 1.6666-0.99355 3.0961-0.99355 3.1767 0 0.10312 0.59256 0.14656 1.9993 0.14656 1.0996 0 1.9993-0.03428 1.9993-0.07617z"/><path d="m99.357 20.752v-1.3393l1.7014-0.22364 2.3608-6.7717c1.2984-3.7244 2.5585-7.3231 2.8002-7.997l0.43948-1.2254 1.7986-0.037085c0.98925-0.020397 1.9192-0.0073 2.0665 0.029102 0.2263 0.055911 0.70524 1.3182 3.0851 8.1309l2.8172 8.0647h0.88567 0.88567l-0.0367 1.3221-0.0367 1.3221-7.1586 0.06858v-1.3564-1.3564h0.83839c1.0128 0 0.99707 0.08876 0.3423-1.9348l-0.47998-1.4833h-2.9509-2.9509l-0.54703 1.6356c-0.61715 1.8452-0.63595 1.7825 0.53482 1.7825h0.69887v1.3543 1.3543h-3.5471-3.5471v-1.3393zm11.351-7.7658c0-0.08348-1.767-5.6435-1.918-6.035-0.0651-0.16901-0.39409 0.67459-1.087 2.7878-0.54645 1.6666-0.99355 3.0961-0.99355 3.1767 0 0.10312 0.59256 0.14656 1.9993 0.14656 1.0996 0 1.9993-0.03428 1.9993-0.07617z"/><path d="m99.357 20.752v-1.3393l1.7014-0.22364 2.3608-6.7717c1.2984-3.7244 2.5585-7.3231 2.8002-7.997l0.43948-1.2254 1.7986-0.037085c0.98925-0.020397 1.9192-0.0073 2.0665 0.029102 0.2263 0.055911 0.70524 1.3182 3.0851 8.1309l2.8172 8.0647h0.88567 0.88567l-0.0367 1.3221-0.0367 1.3221-7.1586 0.06858v-1.3564-1.3564h0.83839c1.0128 0 0.99707 0.08876 0.3423-1.9348l-0.47998-1.4833h-2.9509-2.9509l-0.54703 1.6356c-0.61715 1.8452-0.63595 1.7825 0.53482 1.7825h0.69887v1.3543 1.3543h-3.5471-3.5471v-1.3393zm11.351-7.7658c0-0.08348-1.767-5.6435-1.918-6.035-0.0651-0.16901-0.39409 0.67459-1.087 2.7878-0.54645 1.6666-0.99355 3.0961-0.99355 3.1767 0 0.10312 0.59256 0.14656 1.9993 0.14656 1.0996 0 1.9993-0.03428 1.9993-0.07617z"/><path d="m99.357 20.752v-1.3393l1.7014-0.22364 2.3608-6.7717c1.2984-3.7244 2.5585-7.3231 2.8002-7.997l0.43948-1.2254 1.7986-0.037085c0.98925-0.020397 1.9192-0.0073 2.0665 0.029102 0.2263 0.055911 0.70524 1.3182 3.0851 8.1309l2.8172 8.0647h0.88567 0.88567l-0.0367 1.3221-0.0367 1.3221-7.1586 0.06858v-1.3564-1.3564h0.83839c1.0128 0 0.99707 0.08876 0.3423-1.9348l-0.47998-1.4833h-2.9509-2.9509l-0.54703 1.6356c-0.61715 1.8452-0.63595 1.7825 0.53482 1.7825h0.69887v1.3543 1.3543h-3.5471-3.5471v-1.3393zm11.351-7.7658c0-0.08348-1.767-5.6435-1.918-6.035-0.0651-0.16901-0.39409 0.67459-1.087 2.7878-0.54645 1.6666-0.99355 3.0961-0.99355 3.1767 0 0.10312 0.59256 0.14656 1.9993 0.14656 1.0996 0 1.9993-0.03428 1.9993-0.07617z"/><path d="m99.357 20.752v-1.3393l1.7014-0.22364 2.3608-6.7717c1.2984-3.7244 2.5585-7.3231 2.8002-7.997l0.43948-1.2254 1.7986-0.037085c0.98925-0.020397 1.9192-0.0073 2.0665 0.029102 0.2263 0.055911 0.70524 1.3182 3.0851 8.1309l2.8172 8.0647h0.88567 0.88567l-0.0367 1.3221-0.0367 1.3221-7.1586 0.06858v-1.3564-1.3564h0.83839c1.0128 0 0.99707 0.08876 0.3423-1.9348l-0.47998-1.4833h-2.9509-2.9509l-0.54703 1.6356c-0.61715 1.8452-0.63595 1.7825 0.53482 1.7825h0.69887v1.3543 1.3543h-3.5471-3.5471v-1.3393zm11.351-7.7658c0-0.08348-1.767-5.6435-1.918-6.035-0.0651-0.16901-0.39409 0.67459-1.087 2.7878-0.54645 1.6666-0.99355 3.0961-0.99355 3.1767 0 0.10312 0.59256 0.14656 1.9993 0.14656 1.0996 0 1.9993-0.03428 1.9993-0.07617z"/><path d="m99.357 20.752v-1.3393l1.7014-0.22364 2.3608-6.7717c1.2984-3.7244 2.5585-7.3231 2.8002-7.997l0.43948-1.2254 1.7986-0.037085c0.98925-0.020397 1.9192-0.0073 2.0665 0.029102 0.2263 0.055911 0.70524 1.3182 3.0851 8.1309l2.8172 8.0647h0.88567 0.88567l-0.0367 1.3221-0.0367 1.3221-7.1586 0.06858v-1.3564-1.3564h0.83839c1.0128 0 0.99707 0.08876 0.3423-1.9348l-0.47998-1.4833h-2.9509-2.9509l-0.54703 1.6356c-0.61715 1.8452-0.63595 1.7825 0.53482 1.7825h0.69887v1.3543 1.3543h-3.5471-3.5471v-1.3393zm11.351-7.7658c0-0.08348-1.767-5.6435-1.918-6.035-0.0651-0.16901-0.39409 0.67459-1.087 2.7878-0.54645 1.6666-0.99355 3.0961-0.99355 3.1767 0 0.10312 0.59256 0.14656 1.9993 0.14656 1.0996 0 1.9993-0.03428 1.9993-0.07617z"/><path d="m99.357 20.752v-1.3393l1.7014-0.22364 2.3608-6.7717c1.2984-3.7244 2.5585-7.3231 2.8002-7.997l0.43948-1.2254 1.7986-0.037085c0.98925-0.020397 1.9192-0.0073 2.0665 0.029102 0.2263 0.055911 0.70524 1.3182 3.0851 8.1309l2.8172 8.0647h0.88567 0.88567l-0.0367 1.3221-0.0367 1.3221-7.1586 0.06858v-1.3564-1.3564h0.83839c1.0128 0 0.99707 0.08876 0.3423-1.9348l-0.47998-1.4833h-2.9509-2.9509l-0.54703 1.6356c-0.61715 1.8452-0.63595 1.7825 0.53482 1.7825h0.69887v1.3543 1.3543h-3.5471-3.5471v-1.3393zm11.351-7.7658c0-0.08348-1.767-5.6435-1.918-6.035-0.0651-0.16901-0.39409 0.67459-1.087 2.7878-0.54645 1.6666-0.99355 3.0961-0.99355 3.1767 0 0.10312 0.59256 0.14656 1.9993 0.14656 1.0996 0 1.9993-0.03428 1.9993-0.07617z"/><path d="m99.357 20.752v-1.3393l1.7014-0.22364 2.3608-6.7717c1.2984-3.7244 2.5585-7.3231 2.8002-7.997l0.43948-1.2254 1.7986-0.037085c0.98925-0.020397 1.9192-0.0073 2.0665 0.029102 0.2263 0.055911 0.70524 1.3182 3.0851 8.1309l2.8172 8.0647h0.88567 0.88567l-0.0367 1.3221-0.0367 1.3221-7.1586 0.06858v-1.3564-1.3564h0.83839c1.0128 0 0.99707 0.08876 0.3423-1.9348l-0.47998-1.4833h-2.9509-2.9509l-0.54703 1.6356c-0.61715 1.8452-0.63595 1.7825 0.53482 1.7825h0.69887v1.3543 1.3543h-3.5471-3.5471v-1.3393zm11.351-7.7658c0-0.08348-1.767-5.6435-1.918-6.035-0.0651-0.16901-0.39409 0.67459-1.087 2.7878-0.54645 1.6666-0.99355 3.0961-0.99355 3.1767 0 0.10312 0.59256 0.14656 1.9993 0.14656 1.0996 0 1.9993-0.03428 1.9993-0.07617z"/><path d="m99.357 20.752v-1.3393l1.7014-0.22364 2.3608-6.7717c1.2984-3.7244 2.5585-7.3231 2.8002-7.997l0.43948-1.2254 1.7986-0.037085c0.98925-0.020397 1.9192-0.0073 2.0665 0.029102 0.2263 0.055911 0.70524 1.3182 3.0851 8.1309l2.8172 8.0647h0.88567 0.88567l-0.0367 1.3221-0.0367 1.3221-7.1586 0.06858v-1.3564-1.3564h0.83839c1.0128 0 0.99707 0.08876 0.3423-1.9348l-0.47998-1.4833h-2.9509-2.9509l-0.54703 1.6356c-0.61715 1.8452-0.63595 1.7825 0.53482 1.7825h0.69887v1.3543 1.3543h-3.5471-3.5471v-1.3393zm11.351-7.7658c0-0.08348-1.767-5.6435-1.918-6.035-0.0651-0.16901-0.39409 0.67459-1.087 2.7878-0.54645 1.6666-0.99355 3.0961-0.99355 3.1767 0 0.10312 0.59256 0.14656 1.9993 0.14656 1.0996 0 1.9993-0.03428 1.9993-0.07617z"/><path d="m99.357 20.752v-1.3393l1.7014-0.22364 2.3608-6.7717c1.2984-3.7244 2.5585-7.3231 2.8002-7.997l0.43948-1.2254 1.7986-0.037085c0.98925-0.020397 1.9192-0.0073 2.0665 0.029102 0.2263 0.055911 0.70524 1.3182 3.0851 8.1309l2.8172 8.0647h0.88567 0.88567l-0.0367 1.3221-0.0367 1.3221-7.1586 0.06858v-1.3564-1.3564h0.83839c1.0128 0 0.99707 0.08876 0.3423-1.9348l-0.47998-1.4833h-2.9509-2.9509l-0.54703 1.6356c-0.61715 1.8452-0.63595 1.7825 0.53482 1.7825h0.69887v1.3543 1.3543h-3.5471-3.5471v-1.3393zm11.351-7.7658c0-0.08348-1.767-5.6435-1.918-6.035-0.0651-0.16901-0.39409 0.67459-1.087 2.7878-0.54645 1.6666-0.99355 3.0961-0.99355 3.1767 0 0.10312 0.59256 0.14656 1.9993 0.14656 1.0996 0 1.9993-0.03428 1.9993-0.07617z"/><path d="m99.357 20.752v-1.3393l1.7014-0.22364 2.3608-6.7717c1.2984-3.7244 2.5585-7.3231 2.8002-7.997l0.43948-1.2254 1.7986-0.037085c0.98925-0.020397 1.9192-0.0073 2.0665 0.029102 0.2263 0.055911 0.70524 1.3182 3.0851 8.1309l2.8172 8.0647h0.88567 0.88567l-0.0367 1.3221-0.0367 1.3221-7.1586 0.06858v-1.3564-1.3564h0.83839c1.0128 0 0.99707 0.08876 0.3423-1.9348l-0.47998-1.4833h-2.9509-2.9509l-0.54703 1.6356c-0.61715 1.8452-0.63595 1.7825 0.53482 1.7825h0.69887v1.3543 1.3543h-3.5471-3.5471v-1.3393zm11.351-7.7658c0-0.08348-1.767-5.6435-1.918-6.035-0.0651-0.16901-0.39409 0.67459-1.087 2.7878-0.54645 1.6666-0.99355 3.0961-0.99355 3.1767 0 0.10312 0.59256 0.14656 1.9993 0.14656 1.0996 0 1.9993-0.03428 1.9993-0.07617z"/><path d="m99.357 20.752v-1.3393l1.7014-0.22364 2.3608-6.7717c1.2984-3.7244 2.5585-7.3231 2.8002-7.997l0.43948-1.2254 1.7986-0.037085c0.98925-0.020397 1.9192-0.0073 2.0665 0.029102 0.2263 0.055911 0.70524 1.3182 3.0851 8.1309l2.8172 8.0647h0.88567 0.88567l-0.0367 1.3221-0.0367 1.3221-7.1586 0.06858v-1.3564-1.3564h0.83839c1.0128 0 0.99707 0.08876 0.3423-1.9348l-0.47998-1.4833h-2.9509-2.9509l-0.54703 1.6356c-0.61715 1.8452-0.63595 1.7825 0.53482 1.7825h0.69887v1.3543 1.3543h-3.5471-3.5471v-1.3393zm11.351-7.7658c0-0.08348-1.767-5.6435-1.918-6.035-0.0651-0.16901-0.39409 0.67459-1.087 2.7878-0.54645 1.6666-0.99355 3.0961-0.99355 3.1767 0 0.10312 0.59256 0.14656 1.9993 0.14656 1.0996 0 1.9993-0.03428 1.9993-0.07617z"/><path d="m99.357 20.752v-1.3393l1.7014-0.22364 2.3608-6.7717c1.2984-3.7244 2.5585-7.3231 2.8002-7.997l0.43948-1.2254 1.7986-0.037085c0.98925-0.020397 1.9192-0.0073 2.0665 0.029102 0.2263 0.055911 0.70524 1.3182 3.0851 8.1309l2.8172 8.0647h0.88567 0.88567l-0.0367 1.3221-0.0367 1.3221-7.1586 0.06858v-1.3564-1.3564h0.83839c1.0128 0 0.99707 0.08876 0.3423-1.9348l-0.47998-1.4833h-2.9509-2.9509l-0.54703 1.6356c-0.61715 1.8452-0.63595 1.7825 0.53482 1.7825h0.69887v1.3543 1.3543h-3.5471-3.5471v-1.3393zm11.351-7.7658c0-0.08348-1.767-5.6435-1.918-6.035-0.0651-0.16901-0.39409 0.67459-1.087 2.7878-0.54645 1.6666-0.99355 3.0961-0.99355 3.1767 0 0.10312 0.59256 0.14656 1.9993 0.14656 1.0996 0 1.9993-0.03428 1.9993-0.07617z"/><path d="m99.357 20.752v-1.3393l1.7014-0.22364 2.3608-6.7717c1.2984-3.7244 2.5585-7.3231 2.8002-7.997l0.43948-1.2254 1.7986-0.037085c0.98925-0.020397 1.9192-0.0073 2.0665 0.029102 0.2263 0.055911 0.70524 1.3182 3.0851 8.1309l2.8172 8.0647h0.88567 0.88567l-0.0367 1.3221-0.0367 1.3221-7.1586 0.06858v-1.3564-1.3564h0.83839c1.0128 0 0.99707 0.08876 0.3423-1.9348l-0.47998-1.4833h-2.9509-2.9509l-0.54703 1.6356c-0.61715 1.8452-0.63595 1.7825 0.53482 1.7825h0.69887v1.3543 1.3543h-3.5471-3.5471v-1.3393zm11.351-7.7658c0-0.08348-1.767-5.6435-1.918-6.035-0.0651-0.16901-0.39409 0.67459-1.087 2.7878-0.54645 1.6666-0.99355 3.0961-0.99355 3.1767 0 0.10312 0.59256 0.14656 1.9993 0.14656 1.0996 0 1.9993-0.03428 1.9993-0.07617z"/><path d="m99.357 20.752v-1.3393l1.7014-0.22364 2.3608-6.7717c1.2984-3.7244 2.5585-7.3231 2.8002-7.997l0.43948-1.2254 1.7986-0.037085c0.98925-0.020397 1.9192-0.0073 2.0665 0.029102 0.2263 0.055911 0.70524 1.3182 3.0851 8.1309l2.8172 8.0647h0.88567 0.88567l-0.0367 1.3221-0.0367 1.3221-7.1586 0.06858v-1.3564-1.3564h0.83839c1.0128 0 0.99707 0.08876 0.3423-1.9348l-0.47998-1.4833h-2.9509-2.9509l-0.54703 1.6356c-0.61715 1.8452-0.63595 1.7825 0.53482 1.7825h0.69887v1.3543 1.3543h-3.5471-3.5471v-1.3393zm11.351-7.7658c0-0.08348-1.767-5.6435-1.918-6.035-0.0651-0.16901-0.39409 0.67459-1.087 2.7878-0.54645 1.6666-0.99355 3.0961-0.99355 3.1767 0 0.10312 0.59256 0.14656 1.9993 0.14656 1.0996 0 1.9993-0.03428 1.9993-0.07617z"/><path d="m99.357 20.752v-1.3393l1.7014-0.22364 2.3608-6.7717c1.2984-3.7244 2.5585-7.3231 2.8002-7.997l0.43948-1.2254 1.7986-0.037085c0.98925-0.020397 1.9192-0.0073 2.0665 0.029102 0.2263 0.055911 0.70524 1.3182 3.0851 8.1309l2.8172 8.0647h0.88567 0.88567l-0.0367 1.3221-0.0367 1.3221-7.1586 0.06858v-1.3564-1.3564h0.83839c1.0128 0 0.99707 0.08876 0.3423-1.9348l-0.47998-1.4833h-2.9509-2.9509l-0.54703 1.6356c-0.61715 1.8452-0.63595 1.7825 0.53482 1.7825h0.69887v1.3543 1.3543h-3.5471-3.5471v-1.3393zm11.351-7.7658c0-0.08348-1.767-5.6435-1.918-6.035-0.0651-0.16901-0.39409 0.67459-1.087 2.7878-0.54645 1.6666-0.99355 3.0961-0.99355 3.1767 0 0.10312 0.59256 0.14656 1.9993 0.14656 1.0996 0 1.9993-0.03428 1.9993-0.07617z"/></g></g></svg>
