<?xml version="1.0" encoding="UTF-8" standalone="no"?>
<!-- Created with Inkscape (http://www.inkscape.org/) -->

<svg
   xmlns:dc="http://purl.org/dc/elements/1.1/"
   xmlns:cc="http://creativecommons.org/ns#"
   xmlns:rdf="http://www.w3.org/1999/02/22-rdf-syntax-ns#"
   xmlns:svg="http://www.w3.org/2000/svg"
   xmlns="http://www.w3.org/2000/svg"
   xmlns:sodipodi="http://sodipodi.sourceforge.net/DTD/sodipodi-0.dtd"
   xmlns:inkscape="http://www.inkscape.org/namespaces/inkscape"
   width="18.600796mm"
   height="17.965115mm"
   viewBox="0 0 65.908331 63.655918"
   id="svg3362"
   version="1.1"
   inkscape:version="0.91 r13725"
   sodipodi:docname="ufmg-square.svg">
  <defs
     id="defs3364" />
  <sodipodi:namedview
     id="base"
     pagecolor="#ffffff"
     bordercolor="#666666"
     borderopacity="1.0"
     inkscape:pageopacity="0.0"
     inkscape:pageshadow="2"
     inkscape:zoom="0.35"
     inkscape:cx="-1326.3309"
     inkscape:cy="488.97077"
     inkscape:document-units="px"
     inkscape:current-layer="layer1"
     showgrid="false"
     fit-margin-top="0"
     fit-margin-left="0"
     fit-margin-right="0"
     fit-margin-bottom="0"
     inkscape:window-width="1920"
     inkscape:window-height="1017"
     inkscape:window-x="0"
     inkscape:window-y="30"
     inkscape:window-maximized="1" />
  <metadata
     id="metadata3367">
    <rdf:RDF>
      <cc:Work
         rdf:about="">
        <dc:format>image/svg+xml</dc:format>
        <dc:type
           rdf:resource="http://purl.org/dc/dcmitype/StillImage" />
        <dc:title></dc:title>
      </cc:Work>
    </rdf:RDF>
  </metadata>
  <g
     inkscape:label="Layer 1"
     inkscape:groupmode="layer"
     id="layer1"
     transform="translate(-1701.3309,-957.67706)">
    <path
       style="clip-rule:evenodd;fill:#c80019;fill-rule:evenodd"
       inkscape:connector-curvature="0"
       id="path11"
       d="m 1765.7358,984.68206 c -1.268,1.354 -5.83,5.318 -7.346,5.318 -0.598,0 -1.365,-0.337 -1.365,-1.015 0,-0.927 0.768,-2.621 1.191,-3.962 l 6.752,-19.755 c 0.42,-1.188 0.85,-2.788 0.85,-4.133 0,-1.865 -0.762,-3.458 -3.381,-3.458 -8.02,0 -20.684,14.173 -25.24,19.915 l -0.17,0 4.053,-12.581 c 0.516,-1.514 0.926,-3.206 0.926,-4.549 0,-1.611 -1.186,-2.785 -3.795,-2.785 -7.506,0 -20.004,13.921 -24.047,19.749 l -0.168,0 4.379,-12.75 c 0.338,-1.015 0.934,-2.612 0.934,-4.052 0,-1.597 -0.842,-2.947 -2.871,-2.947 -5.577,0 -11.482,6.749 -14.684,10.708 0,0 -0.827,1.005 -0.168,1.563 0.744,0.638 1.44,-0.037 1.44,-0.037 l 2.274,-2.531 c 1.519,-1.521 3.127,-2.954 4.893,-2.954 1.018,0 1.35,0.753 1.35,1.688 0,0.753 -0.25,1.597 -0.332,2.105 l -8.789,26.549 c -0.192,0.957 1.599,1.481 2.45,1.481 2.138,0 3.121,-0.636 3.37,-1.32 l 1.528,-4.426 c 2.279,-6.417 5.906,-12.236 10.556,-17.222 2.699,-2.949 7.762,-8.855 12.32,-8.855 1.178,0 1.6,0.934 1.6,2.106 0,2.196 -1.176,5.399 -1.439,6.248 l -7.377,22.021 c -0.162,0.691 0.582,1.657 2.873,1.662 2.113,0.009 2.699,-0.737 2.949,-1.503 l 1.395,-3.453 c 2.352,-6.072 4.725,-10.457 8.688,-15.345 2.705,-3.3 10.387,-11.815 14.777,-11.815 0.914,0 1.936,0.666 1.936,2.015 0,0.839 -0.512,2.274 -0.92,3.465 l -6.832,19.584 c -0.605,1.685 -1.025,3.03 -1.025,3.968 0,2.187 1.525,2.861 3.125,2.861 4.631,0 8.607,-3.8 11.908,-7.421 l 2.611,-2.877 c 0,0 0.73,-0.758 0,-1.362 -0.621,-0.513 -1.183,0.102 -1.183,0.102 z" />
    <rect
       style="fill:#c80019"
       id="rect13"
       height="14.069"
       width="58.366001"
       y="1007.264"
       x="1702.9338" />
  </g>
</svg>
